<?xml version="1.0" encoding="UTF-8" standalone="no"?>
<!-- Created with Inkscape (http://www.inkscape.org/) -->

<svg
   version="1.1"
   id="svg1"
   width="552"
   height="564"
   viewBox="0 0 552 564"
   sodipodi:docname="THM-Base-Icon.svg"
   inkscape:version="1.3 (0e150ed6c4, 2023-07-21)"
   xmlns:inkscape="http://www.inkscape.org/namespaces/inkscape"
   xmlns:sodipodi="http://sodipodi.sourceforge.net/DTD/sodipodi-0.dtd"
   xmlns="http://www.w3.org/2000/svg"
   xmlns:svg="http://www.w3.org/2000/svg">
  <defs
     id="defs1" />
  <sodipodi:namedview
     id="namedview1"
     pagecolor="#ffffff"
     bordercolor="#000000"
     borderopacity="0.25"
     inkscape:showpageshadow="2"
     inkscape:pageopacity="0.0"
     inkscape:pagecheckerboard="0"
     inkscape:deskcolor="#d1d1d1"
     showgrid="false"
     inkscape:zoom="1.0576241"
     inkscape:cx="-82.732607"
     inkscape:cy="353.15004"
     inkscape:window-width="3440"
     inkscape:window-height="1369"
     inkscape:window-x="1912"
     inkscape:window-y="-8"
     inkscape:window-maximized="1"
     inkscape:current-layer="g1" />
  <g
     inkscape:groupmode="layer"
     inkscape:label="Image"
     id="g1">
    <g
       id="g8"
       transform="translate(-3.6296228e-7,0.94551535)">
      <path
         style="fill:#efc7c7"
         d="m 388.47472,561.37822 c -5.59171,-6.03355 -5.05724,-24.75552 0.82431,-28.87512 2.45819,-1.72178 9.90724,-1.99826 12.75636,-0.47346 6.94161,3.71504 7.79143,24.79929 1.20827,29.9776 -3.93077,3.09195 -11.64453,2.76386 -14.78894,-0.62902 z m 10.55003,-5.94332 c 1.26839,-3.33612 1.25236,-12.57585 -0.0277,-15.94256 -1.2327,-3.24224 -3.92898,-2.99822 -5.70723,0.51652 -1.55961,3.08258 -1.65737,10.63845 -0.19203,14.84192 1.37313,3.93899 4.533,4.25041 5.92692,0.58412 z M 420,552.38499 v -11.61501 l -2.58456,1.69347 c -2.43332,1.59437 -2.69666,1.59203 -4.5,-0.04 C 411.86195,541.47008 411,540.41634 411,540.08184 c 0,-0.3345 2.44116,-2.51476 5.42481,-4.84501 3.69765,-2.88791 6.40388,-4.23683 8.5,-4.23683 H 428 v 16.5 16.5 h -4 -4 z M 302.42096,523.62868 c -4.93677,-2.22603 -6.6763,-7.17102 -6.26662,-17.81414 0.33468,-8.6947 0.44942,-9.07269 3.61144,-11.89727 4.33321,-3.87079 11.11995,-4.12245 14.6974,-0.545 5.97218,5.97218 6.08047,22.95001 0.18174,28.49159 -2.98094,2.80045 -8.24254,3.56009 -12.22396,1.76482 z m 7.54386,-7.56294 c 1.11226,-2.07829 1.38325,-12.16611 0.42298,-15.74657 -0.73993,-2.75893 -3.33408,-3.80146 -5.09,-2.04554 -3.60695,3.60695 -2.21325,19.72637 1.70556,19.72637 1.05945,0 2.39211,-0.87042 2.96146,-1.93426 z M 458,523.21208 c -1.96282,-1.07169 -4.59799,-3.84368 -6,-6.31153 -2.24845,-3.95777 -2.5,-5.50736 -2.5,-15.40055 0,-9.02151 0.35973,-11.70784 2,-14.93547 2.67467,-5.26303 6.35212,-7.75772 12.17551,-8.25954 6.52425,-0.56222 11.08711,1.88983 14.31913,7.69501 2.24925,4.03998 2.50536,5.62449 2.50536,15.5 0,12.19845 -1.56992,17.09602 -6.67551,20.8251 -3.88379,2.83669 -11.47434,3.26215 -15.82449,0.88698 z m 10.72695,-9.9181 c 1.36883,-2.0891 1.77305,-4.7779 1.77305,-11.79398 0,-9.90621 -1.74247,-14.5 -5.5,-14.5 -3.7516,0 -5.45455,4.527 -5.45455,14.5 0,7.03779 0.40513,9.77563 1.75033,11.82867 2.24048,3.4194 5.17694,3.4057 7.43117,-0.0347 z M 529,523.24309 c -2.28669,-1.22827 -4.36665,-3.58955 -6,-6.81154 -2.19482,-4.32955 -2.5,-6.2133 -2.5,-15.43155 0,-8.6786 0.35884,-11.18403 2.06862,-14.44331 C 525.73823,480.51461 529.09681,478.5 536,478.5 c 6.90319,0 10.26177,2.01461 13.43138,8.05669 1.72713,3.29235 2.06862,5.75918 2.06862,14.94331 0,12.19845 -1.56992,17.09602 -6.67551,20.8251 -3.85859,2.81828 -11.46517,3.25954 -15.82449,0.91799 z m 10.72695,-9.95137 c 2.17849,-3.32758 2.50698,-20.39178 0.46281,-24.04172 -1.7491,-3.12308 -5.68731,-2.94648 -7.84853,0.35196 -2.4312,3.7105 -2.4312,20.08558 0,23.79608 2.19879,3.35577 5.14695,3.31333 7.38572,-0.10632 z M 331,512.47695 v -11.52306 l -2.56477,1.68051 c -2.44693,1.60329 -2.66262,1.58265 -4.69445,-0.44917 -1.17132,-1.17132 -1.92967,-2.27639 -1.68522,-2.45572 0.24444,-0.17932 2.75689,-2.21682 5.58322,-4.52778 3.58854,-2.93417 6.07736,-4.20173 8.25,-4.20173 H 339 v 16.5 16.5 h -4 -4 z m 167.77418,-4.99673 -0.27418,-16.51978 -3.74142,3.08551 -3.74143,3.08552 -2.47697,-2.81574 c -1.36234,-1.54865 -2.4912,-3.08255 -2.50858,-3.40867 -0.0174,-0.32612 3.18581,-3.13862 7.11819,-6.25 6.20995,-4.91344 7.72163,-5.65706 11.5,-5.65706 H 509 v 22.5 22.5 h -4.97582 -4.97582 z M 303.14857,471.47156 C 298.552,467.6038 296.49337,461.073 296.53794,450.5 c 0.0458,-10.86302 1.46404,-15.41654 6.05791,-19.45002 3.05804,-2.68499 4.20168,-3.04998 9.55659,-3.04998 5.7022,0 6.31893,0.23608 9.8554,3.77255 4.65088,4.65088 5.99532,9.2351 5.9322,20.22745 -0.0899,15.65044 -4.71096,22 -16.0112,22 -4.71878,0 -6.32513,-0.46258 -8.78027,-2.52844 z m 12.48238,-8.03108 c 2.14079,-3.26725 2.97698,-15.51214 1.44591,-21.17347 -1.31193,-4.85104 -4.03185,-6.89665 -7.03383,-5.29004 -2.56126,1.37074 -3.3248,5.86885 -2.89448,17.05181 0.29394,7.63901 0.6691,9.36582 2.29258,10.55243 2.79087,2.03988 4.2864,1.76426 6.18982,-1.14073 z M 346,457.5 c 0,-9.075 -0.37156,-16.5 -0.82569,-16.5 -0.45412,0 -1.88256,1.125 -3.17431,2.5 -3.02428,3.2192 -4.14444,3.14849 -6.78905,-0.42855 l -2.16517,-2.92855 7.60608,-6.07145 C 347.0072,428.99838 348.89448,428 352.12897,428 H 356 v 23 23 h -5 -5 z m 28.14857,13.97156 c -4.59181,-3.86375 -6.65394,-10.39849 -6.61787,-20.97156 0.0526,-15.41814 3.87227,-21.45423 14.11383,-22.30354 7.16387,-0.59409 11.17133,1.38278 14.46832,7.13715 2.15211,3.75617 2.38715,5.3479 2.38715,16.16639 0,13.54888 -1.18026,17.11482 -6.79855,20.54048 -4.90556,2.9911 -13.65922,2.70738 -17.55288,-0.56892 z m 12.30772,-7.42326 c 1.14284,-1.26283 1.94891,-4.22716 2.28375,-8.39851 0.98807,-12.30925 -1.8252,-20.7097 -6.44457,-19.24357 -3.41531,1.08398 -4.51935,5.51328 -4.14111,16.61378 0.29465,8.64763 0.63198,10.35315 2.28677,11.56199 2.60573,1.90351 3.91462,1.78738 6.01516,-0.53369 z m 30.31789,-6.69564 -0.27418,-16.64734 -3.14436,2.64734 c -3.95415,3.32914 -4.49107,3.30801 -7.14469,-0.28121 l -2.16517,-2.92855 7.60608,-6.07145 C 418.0072,428.99838 419.89448,428 423.12897,428 H 427 v 23 23 h -4.97582 -4.97582 z m 78.40779,14.61693 c -5.38864,-3.28535 -7.59761,-9.52751 -7.59761,-21.46959 0,-16.46872 4.75846,-23.49252 15.91564,-23.49252 10.37418,0 15.4408,6.55034 16.26639,21.0299 0.64328,11.28233 -1.34849,18.5105 -6.29826,22.85646 -3.07672,2.70139 -4.28247,3.10567 -9.25293,3.10242 -3.97151,-0.003 -6.72752,-0.62093 -9.03323,-2.02667 z m 10.41833,-6.7349 c 2.45713,-1.64067 3.3997,-5.55098 3.3997,-14.10385 0,-9.91794 -0.91272,-13.47858 -3.85927,-15.05552 -1.51723,-0.812 -2.47963,-0.62167 -4.29787,0.85 -2.21101,1.78957 -2.34286,2.54245 -2.34286,13.37821 0,9.88692 0.26463,11.77466 1.90499,13.5892 1.99941,2.21172 3.3646,2.56435 5.19531,1.34196 z M 538,456.91597 v -17.08403 l -3.90423,3.09221 -3.90422,3.0922 -2.60246,-3.09285 c -1.43136,-1.70106 -2.39723,-3.42492 -2.14639,-3.83079 0.25084,-0.40586 3.82902,-3.32141 7.95151,-6.47898 6.53934,-5.00873 7.98081,-5.70103 11.30061,-5.42738 L 548.5,427.5 l 0.26843,23.25 0.26843,23.25 H 543.51843 538 Z m -78.65325,-50.91984 c -8.18776,-4.15848 -12.35877,-14.46032 -12.33113,-30.45623 0.0394,-22.79403 7.68828,-33.36482 23.41763,-32.36325 8.61562,0.5486 13.4028,3.75216 17.21825,11.52236 2.75931,5.61936 2.8485,6.28631 2.8485,21.30099 0,14.54695 -0.15372,15.80429 -2.5,20.44892 -1.375,2.72191 -4.22053,6.31483 -6.32339,7.98428 -3.31884,2.63479 -4.77044,3.07737 -11,3.35383 -5.75526,0.25541 -7.99918,-0.0993 -11.32986,-1.7909 z m 14.41252,-11.80091 c 2.25547,-2.87082 3.22958,-8.5097 3.22958,-18.69522 0,-15.05418 -2.10004,-20.5 -7.90529,-20.5 -3.7573,0 -5.79338,2.54851 -7.17206,8.97705 -1.39194,6.49039 -0.7147,24.40637 1.06489,28.17104 2.22608,4.7092 7.85224,5.77732 10.78288,2.04713 z M 317,383.42268 v -23.57733 l -5.53135,4.72558 c -6.13969,5.2453 -5.15107,5.40993 -10.50073,-1.74856 l -2.00104,-2.67762 10.26656,-8.05937 C 319.3541,344.14054 319.58171,344.02582 325.25,344.013 L 331,344 v 31.5 31.5 h -7 -7 z m 50,0 v -23.57733 l -5.56875,4.75753 -5.56874,4.75753 -2.44473,-2.93021 c -5.06322,-6.06868 -5.2613,-5.57192 5.72019,-14.34595 C 369.20792,344.03852 369.28411,344 375.12807,344 H 381 v 31.5 31.5 h -7 -7 z m 50,0 v -23.57733 l -5.56875,4.75753 -5.56874,4.75753 -2.44473,-2.93021 c -5.06322,-6.06868 -5.2613,-5.57192 5.72019,-14.34595 C 419.20792,344.03852 419.28411,344 425.12807,344 H 431 v 31.5 31.5 h -7 -7 z M 96.905925,336.93898 C 47.918968,331.67022 8.0278963,293.47665 0.94926494,245.0656 -0.64421263,234.16774 0.27667124,215.00013 2.9046845,204.36478 10.559916,173.3847 32.366728,146.79974 61.5,132.9305 c 10.354119,-4.92921 21.248547,-8.36351 30.140469,-9.50132 5.111337,-0.65405 5.144192,-0.68122 5.797277,-4.79348 1.202092,-7.56917 7.488444,-24.652062 13.131324,-35.683813 C 118.15009,68.1311 126.59077,56.540149 138.52513,44.561955 159.6294,23.380174 184.7165,9.6071824 214.5,2.8512236 c 14.1576,-3.2114479 42.32731,-3.69963169 58,-1.0051457 31.3013,5.381392 59.19233,19.9048111 81.97053,42.6836981 5.51621,5.516376 12.80975,13.966147 16.20787,18.777269 10.70964,15.162905 20.8402,37.153475 24.32914,52.811665 l 1.25196,5.61871 17.62025,0.57915 c 19.32668,0.63524 26.41578,1.8771 40.13781,7.0313 25.25305,9.48543 46.5347,28.82404 58.45363,53.11674 9.39714,19.1529 11.64946,32.3441 6.70757,39.28434 -5.86607,8.23815 -20.20066,8.25204 -25.59135,0.0248 -0.83669,-1.27695 -2.68692,-6.34418 -4.11161,-11.26051 -6.35953,-21.94542 -20.18202,-38.73414 -39.89317,-48.45405 -10.96612,-5.40758 -18.06474,-7.17731 -31.23501,-7.78706 -16.85325,-0.78026 -31.60663,3.2686 -46.32477,12.71321 -6.48971,4.16443 -11.431,4.69493 -16.96431,1.82127 C 348.58286,165.44355 346.5,162.08349 346.5,155 c 0,-4.3325 0.53575,-6.58691 2.06198,-8.67667 1.75397,-2.40159 9.02697,-7.81776 16.03644,-11.94225 1.85013,-1.08864 1.82714,-1.41335 -0.84943,-12 C 358.406,101.24791 344.36138,77.701308 328.56687,63.396281 309.84581,46.440681 288.35228,36.213178 263.76936,32.562967 250.63912,30.613313 242.2729,30.598495 229.5,32.502271 189.48034,38.467126 156.34653,62.433487 138.25728,98.5 c -3.84427,7.66475 -9.90543,24.21765 -9.12917,24.93159 0.20454,0.18812 3.97189,1.31112 8.37189,2.49556 9.44636,2.54288 26.08345,10.4158 32.65794,15.45422 10.76448,8.24946 9.82003,22.6444 -1.82362,27.79494 -6.02991,2.66732 -9.74631,2.01264 -18.45921,-3.25177 C 134.70128,156.75638 122.36244,153.55818 105,154.29303 86.038127,155.09557 69.700063,161.80087 56.406632,174.23622 39.925862,189.65317 31.915801,207.89148 31.915801,230 c 0,16.81301 4.343992,30.07177 14.584187,44.51395 9.541207,13.45636 24.751637,23.74443 43.161102,29.19339 5.279193,1.56258 14.43539,1.77926 95.51646,2.26045 88.59586,0.52579 89.71085,0.55708 92.43821,2.594 6.75205,5.04274 8.76893,11.52392 5.91315,19.00168 -1.2227,3.2016 -2.93969,5.34186 -5.80878,7.24079 l -4.07301,2.69574 -84.57356,0.12788 c -46.51546,0.0703 -87.99089,-0.23967 -92.167635,-0.6889 z M 365,313.04822 c -7.90254,-1.55945 -12.40746,-5.64479 -15.69387,-14.23215 -1.21539,-3.17581 -1.66687,-7.75055 -1.70891,-17.31607 -0.0609,-13.84549 0.92048,-19.00464 4.67445,-24.57516 9.62712,-14.28569 32.01204,-10.17805 37.05379,6.79937 3.8329,12.90677 2.91644,30.34078 -2.08415,39.64732 -4.13263,7.69119 -12.92275,11.51557 -22.24131,9.67669 z m 7.1504,-12.12871 c 3.67949,-1.9692 5.03479,-7.37651 5.03479,-20.08757 0,-15.91184 -2.91444,-22.12065 -9.59631,-20.4436 -4.32682,1.08596 -5.92659,6.16952 -6.01432,19.11166 -0.0866,12.77049 0.77332,17.84788 3.48122,20.55578 2.19755,2.19755 4.15669,2.43606 7.09462,0.86373 z m 144.49556,11.98492 c -11.98157,-2.84896 -17.4708,-14.96574 -16.38077,-36.15848 0.64691,-12.57745 2.63593,-18.52045 7.74256,-23.13398 12.01611,-10.85584 29.77307,-5.14574 34.31287,11.03399 2.13313,7.60239 2.27553,26.05532 0.25294,32.77587 -3.69674,12.28335 -13.85964,18.3521 -25.9276,15.4826 z m 9.81939,-13.27887 c 3.02694,-3.02694 3.86119,-8.54946 3.3865,-22.41791 -0.4794,-14.00632 -2.92627,-18.40972 -9.3359,-16.80101 -4.58994,1.152 -5.98064,5.69399 -5.99923,19.59336 -0.0184,13.75694 0.56396,17.08068 3.50872,20.02544 2.63015,2.63015 5.54813,2.4919 8.43991,-0.39988 z M 316.7681,289.54368 316.5,266.08736 l -5.31449,4.14186 -5.3145,4.14185 -2.44898,-2.93553 c -4.88041,-5.85005 -5.08065,-5.37956 6.05588,-14.22908 C 319.63077,249.1386 319.89973,249 325.4026,249 H 331 v 32 32 h -6.9819 -6.9819 z M 470,288.92245 v -24.07754 l -5.23282,4.57754 C 461.88912,271.9401 459.26444,274 458.93454,274 c -1.3474,0 -7.10229,-8.23044 -6.29978,-9.00972 0.47588,-0.46211 5.14024,-4.24722 10.36524,-8.41135 9.34327,-7.44625 9.59486,-7.57122 15.25,-7.57504 L 484,249 v 32 32 h -7 -7 z"
         id="path14" />
      <path
         style="fill:#e39696"
         d="M 390.11687,562.36931 C 386.66902,559.95434 385,554.93545 385,546.98246 385,536.15298 388.61321,531 396.20673,531 c 5.55689,0 9.52412,3.99121 10.79263,10.85786 1.64144,8.88539 -0.34039,17.82512 -4.5653,20.59339 -3.08434,2.02094 -9.37465,1.97909 -12.31719,-0.0819 z m 8.84795,-6.30357 C 399.53417,555.0019 400,551.14732 400,547.5 400,540.00292 398.83889,537 395.94007,537 393.36139,537 392,540.62802 392,547.5 c 0,2.95339 0.43886,6.5241 0.97525,7.9349 1.16893,3.07453 4.4943,3.42476 5.98957,0.63084 z M 420,551.82569 v -12.17432 l -2.58059,2.42432 c -2.52807,2.37496 -2.60948,2.3848 -4,0.48318 C 412.63873,541.49125 412,540.26421 412,539.83212 c 0,-0.43209 2.31971,-2.61924 5.15492,-4.86034 3.60806,-2.85201 5.93363,-3.98426 7.75,-3.77325 L 427.5,531.5 l 0.27477,16.25 0.27477,16.25 H 424.02477 420 Z m 40.60432,-27.83291 c -3.98181,-1.23446 -8.31171,-5.61174 -9.80051,-9.90773 -1.94484,-5.61193 -1.6444,-20.70235 0.52407,-26.32241 3.24659,-8.41426 11.4664,-11.71662 19.88945,-7.9907 3.57808,1.58275 4.97189,2.97084 6.88452,6.8563 3.34015,6.78541 3.45502,22.47894 0.21629,29.55076 -3.02644,6.6083 -10.69341,9.99029 -17.71382,7.81378 z M 469.69356,512 c 1.49258,-4.37686 1.63123,-15.29036 0.25711,-20.23823 -2.04418,-7.36061 -7.98176,-7.06142 -10.02678,0.50524 -1.36879,5.0646 -0.77423,18.303 0.96747,21.54139 0.96756,1.79903 1.94401,2.24035 4.42508,2 2.63233,-0.255 3.39022,-0.91442 4.37712,-3.8084 z m 61.91076,11.98362 c -7.51845,-2.30712 -11.15813,-10.0598 -11.02495,-23.48362 0.13619,-13.72701 4.22239,-20.74789 12.82635,-22.03813 6.85137,-1.02743 12.65742,1.99333 15.69613,8.16637 2.07415,4.21356 2.39581,6.29037 2.38084,15.37176 -0.0189,11.47013 -1.86946,17.05773 -6.69692,20.2208 -3.06363,2.00736 -9.55533,2.87553 -13.18145,1.76282 z M 540.69356,512 c 1.49258,-4.37686 1.63123,-15.29036 0.25711,-20.23823 -1.19169,-4.29097 -3.47381,-5.8944 -6.67075,-4.6869 -2.94312,1.11164 -3.78818,4.59768 -3.73924,15.42513 0.0498,11.01167 1.23736,13.74806 5.77576,13.3084 2.63233,-0.255 3.39022,-0.91442 4.37712,-3.8084 z m -240.45263,9.75 C 297.12147,518.41993 296,514.62597 296,507.40278 296,496.45633 299.70761,491 307.14578,491 c 2.50232,0 4.67655,0.82107 6.71395,2.53543 6.83353,5.75003 6.29006,25.63812 -0.80434,29.43493 -3.57184,1.91159 -10.49852,1.25194 -12.81446,-1.22036 z M 309.8,516.8 c 1.70044,-1.70044 1.57969,-15.89848 -0.15539,-18.27135 C 306.5741,494.32949 303,499.42408 303,508 c 0,8.4788 3.10411,12.49589 6.8,8.8 z m 22.2,-4.86809 v -12.0681 l -3.14048,2.23622 c -3.03734,2.16278 -3.18513,2.17516 -4.5,0.37697 C 323.61178,501.45441 323,500.30847 323,499.93048 323,498.27999 333.87649,491 336.34237,491 H 339 V 507.5 524 H 335.5 332 Z M 499,507.5 c 0,-9.075 -0.37156,-16.5 -0.82569,-16.5 -0.45412,0 -1.88256,1.125 -3.17431,2.5 -3.01553,3.20988 -4.40072,3.15035 -6.85372,-0.29457 l -1.98991,-2.79457 7.37527,-5.70543 C 499.71779,479.9199 501.55935,479 504.95346,479 H 509 v 22.5 22.5 h -5 -5 z M 304.38651,472.09398 c -5.30129,-3.23263 -7.69086,-9.75297 -7.69086,-20.98583 0,-15.91382 4.78908,-23.09579 15.40647,-23.10441 5.75412,-0.005 10.43413,2.98255 13.31089,8.49626 1.74708,3.34851 2.08699,5.7916 2.08699,15 0,9.79808 -0.26374,11.46042 -2.41378,15.21378 -1.37142,2.39409 -3.81181,4.87718 -5.65113,5.75 -4.44118,2.10748 -11.26084,1.93989 -15.04858,-0.3698 z m 11.00278,-7.62613 c 2.13725,-2.13725 2.88486,-7.09412 2.46486,-16.34274 C 317.47229,439.71637 315.63754,436 311.86807,436 c -3.68897,0 -5.34633,4.64999 -5.34633,15 0,7.5042 0.38773,10.21289 1.76218,12.31057 1.96907,3.00517 4.7969,3.46575 7.10537,1.15728 z M 346,456.95288 v -17.04713 l -3.97224,3.19219 -3.97225,3.19218 -2.00921,-2.39506 c -1.10506,-1.31728 -1.90505,-2.92038 -1.77775,-3.56243 0.1273,-0.64206 3.10131,-3.45456 6.60891,-6.25 C 346.35182,429.71974 347.8741,429 351.62746,429 H 356 v 22.5 22.5 h -5 -5 z m 29.84143,15.52305 c -1.46222,-0.7942 -3.70979,-3.13868 -4.99462,-5.20996 -2.00282,-3.22879 -2.38728,-5.35228 -2.69526,-14.88702 -0.30743,-9.51787 -0.0657,-11.78451 1.67659,-15.72333 5.14562,-11.63253 20.86568,-11.71647 26.67186,-0.14242 1.62083,3.23096 2,5.9824 2,14.51291 0,12.29586 -1.83706,17.78302 -7.0276,20.99095 -3.82907,2.36649 -11.69373,2.59737 -15.63097,0.45887 z m 10.54786,-8.00808 c 2.13725,-2.13725 2.88486,-7.09412 2.46486,-16.34274 -0.27377,-6.02867 -0.81421,-8.4235 -2.26192,-10.0232 -2.56279,-2.83185 -5.18921,-2.64664 -7.25875,0.51188 -2.50611,3.82482 -2.54407,20.88966 -0.0549,24.6886 1.97394,3.0126 4.80034,3.47586 7.11073,1.16546 z M 417,456.89641 v -17.10359 l -3.61272,3.17201 -3.61272,3.17201 -2.38728,-2.24274 C 406.07428,442.6606 405,441.14303 405,440.52173 c 0,-0.6213 3.07563,-3.46786 6.83474,-6.32569 5.70322,-4.33581 7.52433,-5.19604 11,-5.19604 H 427 v 22.5 22.5 h -5 -5 z m 78.34626,15.04949 C 489.82095,468.40618 488.5,464.17182 488.5,450 c 0,-11.25001 0.22658,-12.86435 2.26576,-16.14354 2.66407,-4.28405 7.50426,-6.85646 12.90097,-6.85646 5.82778,0 10.43976,2.97173 13.33327,8.59129 2.18977,4.25281 2.49477,6.09957 2.45782,14.88202 -0.0504,11.9734 -2.27164,18.22343 -7.63979,21.49628 -4.44675,2.71109 -12.22038,2.69991 -16.47177,-0.0237 z m 10.64794,-6.9428 c 3.76407,-2.01447 5.01602,-18.58563 2.00288,-26.51079 -1.4246,-3.74697 -4.96015,-4.23656 -7.68849,-1.06468 -2.07895,2.41693 -2.30859,3.67959 -2.30859,12.69388 0,13.47653 2.37132,17.89087 7.9942,14.88159 z m 31.77941,-8.15037 -0.27361,-17.14727 -3.14436,2.64727 c -3.95182,3.32708 -4.74789,3.30951 -7.21791,-0.15931 l -1.99846,-2.80657 7.18036,-5.67965 c 6.16404,-4.87574 7.78193,-5.6816 11.43037,-5.69343 L 548,428 v 23 23 h -4.97639 -4.97638 z M 461,406.4057 c -8.43429,-3.65331 -12.78011,-12.03878 -13.71609,-26.46583 -1.27919,-19.7174 4.37146,-32.80596 15.49714,-35.89586 10.97689,-3.04858 20.52924,1.54945 25.34267,12.19871 2.15074,4.75829 2.37628,6.63354 2.37628,19.75728 0,13.13513 -0.22432,14.99635 -2.38307,19.77308 -1.31069,2.90019 -3.68717,6.3704 -5.28106,7.71157 -5.32395,4.47981 -15.19014,5.79964 -21.83587,2.92105 z m 11.70097,-10.9088 c 1.18028,-0.82671 2.71007,-3.18921 3.39952,-5.25 1.6936,-5.06224 1.54709,-24.61186 -0.22282,-29.73344 -2.46691,-7.13847 -9.8152,-8.07713 -12.94199,-1.65319 -1.79699,3.69188 -2.44302,23.29485 -0.98274,29.82005 1.67702,7.4937 5.93018,10.19113 10.74803,6.81658 z M 317,383.40688 v -23.59312 l -4.88878,4.09312 C 309.42239,366.1581 306.7602,368 306.19525,368 c -0.56496,0 -2.37996,-1.70801 -4.03334,-3.79558 l -3.00615,-3.79557 10.32472,-8.20443 C 319.63061,344.13873 319.89984,344 325.4026,344 H 331 v 31.5 31.5 h -7 -7 z m 49.7681,0.0997 -0.2681,-23.49346 -4.5,3.95082 c -2.475,2.17296 -5.02469,3.97001 -5.66597,3.99346 -0.64128,0.0235 -2.5356,-1.68666 -4.20959,-3.80024 l -3.04362,-3.84288 10.39848,-8.15712 C 369.65842,344.17207 369.99508,344 375.43889,344 H 381 v 31.5 31.5 h -6.9819 -6.9819 z M 417,383.41493 v -23.58506 l -5.13063,4.08506 C 409.04753,366.16172 406.38029,368 405.94218,368 c -1.35508,0 -6.96125,-7.38243 -6.1796,-8.13754 0.40558,-0.39181 5.01242,-4.1194 10.23742,-8.28353 9.34327,-7.44625 9.59486,-7.57122 15.25,-7.57504 L 431,344 v 31.5 31.5 h -7 -7 z M 90.919393,335.98951 C 49.336004,328.95166 14.500537,297.6009 3.7056017,257.5 -12.225642,198.3188 26.001488,137.05737 86.600855,124.65503 l 10.260008,-2.09983 0.657762,-3.5276 C 98.897531,111.63248 104.38452,96.108023 109.01522,86.5 116.96299,70.009568 124.9883,58.853572 138.92127,44.927547 161.3045,22.555481 184.77392,9.6797727 215.81724,2.7411546 224.06228,0.89827236 228.61813,0.57692165 246.5,0.57692165 c 17.88187,0 22.43772,0.32135071 30.68276,2.16423295 C 324.8651,13.398827 363.4941,43.6708 383.98275,86.435954 c 4.42577,9.237733 9.79819,24.350976 11.48693,32.314046 l 0.68923,3.25 h 11.19678 c 28.51831,0 49.97897,6.12476 70.03042,19.98632 21.3814,14.78095 37.73797,38.60526 43.24424,62.98778 1.8793,8.32178 1.27841,12.79245 -2.28926,17.03238 -5.01843,5.96407 -12.14109,7.60585 -18.95965,4.37023 -4.56863,-2.16795 -6.88045,-5.65465 -8.88922,-13.40675 -4.06781,-15.69819 -11.24596,-27.80686 -22.98089,-38.76599 -25.04532,-23.38956 -61.65412,-27.0671 -92.45987,-9.28805 -7.21401,4.16345 -9.66989,5.08408 -13.56229,5.08408 -6.4307,0 -11.17477,-3.03501 -13.71285,-8.77277 -4.13757,-9.35366 -0.26142,-16.65357 12.8642,-24.22704 l 6.06555,-3.49982 -1.37781,-6.00018 C 354.10409,78.620362 317.16539,42.526533 268.5,32.886602 c -9.16785,-1.816023 -34.83215,-1.816023 -44,0 -44.18188,8.75181 -80.10452,40.553082 -93.57652,82.840578 -1.26635,3.97495 -2.07724,7.45239 -1.80199,7.72764 0.27525,0.27525 4.43274,1.63999 9.23886,3.03275 15.14906,4.39002 32.66577,13.96988 36.68066,20.06058 1.36081,2.06439 1.94779,4.6922 1.9524,8.74057 0.006,5.34099 -0.29191,6.10873 -3.85263,9.92601 -3.54515,3.80059 -4.34936,4.17274 -9.88202,4.57293 -5.79556,0.41922 -6.33852,0.24436 -14.39078,-4.63438 -49.548858,-30.02092 -112.406127,1.874 -117.398853,59.57031 -0.82345,9.51585 1.344853,23.29274 5.169692,32.84702 7.579934,18.93433 23.968418,35.25541 43.08624,42.90901 C 93.441017,305.97065 94.008026,306 186.37608,306 h 85.20014 l 4.43901,2.25 c 5.68548,2.8818 8.38631,7.45231 8.28717,14.02407 -0.0838,5.55334 -2.04112,8.90205 -7.29223,12.47593 l -3.30594,2.25 -89.10211,-0.11762 c -49.00617,-0.0647 -91.163393,-0.46648 -93.682727,-0.89287 z M 360.48141,311.60643 c -10.00239,-4.35832 -15.43604,-21.93141 -12.5563,-40.60859 1.43892,-9.33241 4.22826,-15.2503 8.84942,-18.77503 3.25742,-2.48456 4.33582,-2.72281 12.3243,-2.72281 7.31636,0 9.21831,0.34366 11.57784,2.09195 4.01075,2.97177 7.12609,7.92175 8.96347,14.24213 2.14161,7.36686 1.5111,28.80296 -1.01964,34.66592 -2.17237,5.03271 -6.17899,9.34348 -10.33838,11.12316 -4.03902,1.72818 -13.81722,1.71899 -17.80071,-0.0167 z M 373.9486,299.8248 c 2.76428,-2.96711 3.56039,-7.47602 3.50033,-19.8248 -0.0736,-15.14022 -2.19449,-20 -8.7282,-20 -5.1971,0 -7.67184,6.77406 -7.67184,21 0,9.66679 1.33173,16.65811 3.66399,19.23523 2.2002,2.4312 6.77786,2.22777 9.23572,-0.41043 z m 138.27452,11.05661 c -7.55086,-3.7376 -12.15496,-15.03733 -12.20228,-29.94775 -0.0445,-14.02737 3.22371,-23.73019 9.64209,-28.62573 C 513.04211,249.7305 514.05485,249.5 522,249.5 c 7.8955,0 8.97138,0.24079 12.25023,2.74169 2.02247,1.54261 4.81001,5.22602 6.3737,8.42209 2.43661,4.98025 2.83015,7.11062 3.19287,17.2841 0.65671,18.41898 -3.04639,28.79214 -11.8879,33.30057 -4.89709,2.4971 -14.27231,2.32247 -19.70578,-0.36704 z m 15.00528,-11.97339 c 4.36143,-5.86911 4.35534,-29.97041 -0.009,-35.81604 -2.751,-3.68466 -7.76276,-3.58413 -10.59742,0.21258 -1.75702,2.35334 -2.15426,4.5681 -2.46908,13.76585 -0.4565,13.33693 0.30011,18.96442 3.0135,22.41394 2.67898,3.40577 7.29956,3.14111 10.06205,-0.57633 z M 317,288.42268 v -23.57733 l -5.52437,4.71962 c -3.03841,2.59579 -5.6485,4.54309 -5.80021,4.32733 -0.15171,-0.21577 -1.49074,-1.88933 -2.97563,-3.71903 C 301.21491,268.34358 300,266.45103 300,265.96762 c 0,-0.48341 4.26444,-4.27389 9.47653,-8.42328 9.43165,-7.50862 9.50505,-7.54434 15.5,-7.54434 H 331 v 31 31 h -7 -7 z m 153,0 v -23.57733 l -5.52437,4.71962 c -3.03841,2.59579 -5.6994,4.54309 -5.91333,4.32733 -0.21392,-0.21577 -1.77026,-2.13199 -3.45852,-4.25829 l -3.06958,-3.86598 9.86755,-7.88402 L 471.7693,250 H 477.88465 484 v 31 31 h -7 -7 z"
         id="path13" />
      <path
         style="fill:#989898"
         d="m 389.6693,561.95451 c -3.03406,-2.38659 -4.65815,-7.42622 -4.65815,-14.45451 0,-10.84925 3.76335,-16.5 10.98885,-16.5 7.98378,0 11.50531,6.32225 10.84168,19.46417 -0.36616,7.25098 -0.59741,7.92838 -3.63215,10.63992 -4.0026,3.57632 -9.62581,3.9295 -13.54023,0.85042 z m 9.37492,-5.50779 c 0.79585,-0.95894 1.28911,-4.38229 1.28911,-8.94672 0,-7.77655 -1.14659,-10.5 -4.42059,-10.5 C 393.1602,537 392,540.11344 392,547.5 c 0,3.64732 0.46583,7.5019 1.03518,8.56574 1.24634,2.32879 4.23523,2.51829 6.00904,0.38098 z M 421,551.41111 v -12.5889 l -3.11575,2.62173 c -2.94301,2.47639 -3.19072,2.52289 -4.46819,0.8389 -0.74385,-0.98056 -1.36676,-2.09973 -1.38426,-2.48703 C 411.95619,538.12147 421.46684,532 424.1438,532 H 427 v 16 16 h -3 -3 z M 300.24093,521.75 C 297.12147,518.41993 296,514.62597 296,507.40278 296,496.45633 299.70761,491 307.14578,491 c 2.50232,0 4.67655,0.82107 6.71395,2.53543 6.83353,5.75003 6.29006,25.63812 -0.80434,29.43493 -3.57184,1.91159 -10.49852,1.25194 -12.81446,-1.22036 z M 309.8,516.8 c 1.70044,-1.70044 1.57969,-15.89848 -0.15539,-18.27135 C 306.5741,494.32949 303,499.42408 303,508 c 0,8.4788 3.10411,12.49589 6.8,8.8 z m 22.2,-4.86809 v -12.0681 l -3.14048,2.23622 c -3.03734,2.16278 -3.18513,2.17516 -4.5,0.37697 C 323.61178,501.45441 323,500.30847 323,499.93048 323,498.27999 333.87649,491 336.34237,491 H 339 v 16.5 16.5 h -3.5 -3.5 z m 124.14857,9.53965 c -4.86464,-4.09332 -6.39321,-9.61749 -5.98028,-21.61239 C 450.72013,483.82934 454.21637,479 465.26943,479 c 8.80605,0 12.96448,4.55296 14.84959,16.25844 1.13823,7.06776 -0.25908,18.47722 -2.787,22.75664 C 474.90963,522.11585 470.9242,524 464.67243,524 c -4.44451,0 -6.10399,-0.49225 -8.52386,-2.52844 z m 11.99065,-6.38321 c 2.23301,-1.80818 2.36078,-2.53317 2.36078,-13.39501 0,-9.97145 -0.25606,-11.76631 -1.94483,-13.63237 -4.93545,-5.45362 -9.55114,0.88701 -9.55362,13.12393 -0.002,8.24629 1.10689,12.56969 3.73461,14.5651 2.16947,1.64743 2.61952,1.59232 5.40306,-0.66165 z M 499,507.00767 v -17.10192 l -4.07437,3.27426 -4.07438,3.27425 -1.90339,-2.47713 c -1.04686,-1.36242 -1.91339,-2.76394 -1.92562,-3.11449 -0.0122,-0.35055 3.13671,-3.18968 6.99766,-6.30918 6.12728,-4.95062 7.4942,-5.6325 10.75,-5.36264 L 508.5,479.5 v 22 22 l -4.75,0.30479 -4.75,0.30479 z m 30.5,16.04697 c -5.65039,-2.31266 -8.396,-9.27356 -8.45611,-21.43862 -0.0545,-11.0206 1.34221,-15.86983 5.66358,-19.66404 2.90936,-2.55445 4.15509,-2.95198 9.2506,-2.95198 4.83975,0 6.42364,0.45031 8.89336,2.52844 4.63962,3.90398 6.66293,10.39389 6.56583,21.06033 -0.13614,14.95388 -4.74563,21.48292 -15.07155,21.34784 -2.66514,-0.0349 -5.74571,-0.43175 -6.84571,-0.88197 z m 9.63922,-7.96629 c 2.23466,-1.80952 2.36078,-2.52923 2.36078,-13.47222 0,-10.46662 -0.20179,-11.76237 -2.13247,-13.69304 C 534.33255,482.88811 530,489.12256 530,501.40278 c 0,8.04239 1.12561,12.36485 3.73616,14.34722 2.16947,1.64743 2.61952,1.59232 5.40306,-0.66165 z M 305.19236,472.38108 c -1.88514,-0.96132 -4.25049,-3.44877 -5.5,-5.7839 C 297.80049,463.06157 297.5,460.92378 297.5,451 c 0,-9.65701 0.32861,-12.12636 2.05049,-15.40837 2.75484,-5.25092 7.57907,-7.83421 13.64267,-7.30542 10.27185,0.89579 14.28697,7.42947 14.2655,23.21379 -0.0151,11.13475 -1.72284,16.23791 -6.63417,19.8251 -3.66795,2.67905 -11.42213,3.20286 -15.63213,1.05598 z m 11.28196,-9.33142 C 317.51396,461.03923 318,457.2005 318,451 c 0,-10.64501 -1.59759,-15 -5.50263,-15 -4.43739,0 -5.99737,4.058 -5.99737,15.60103 0,8.61628 0.29404,10.51391 1.90499,12.29398 2.7821,3.0742 6.2292,2.71307 8.06933,-0.84535 z m 59.93224,9.37849 c -1.7014,-0.83947 -4.1764,-3.41673 -5.5,-5.72723 C 368.74752,462.93208 368.5,461.31718 368.5,451 c 0,-9.65701 0.32861,-12.12636 2.05049,-15.40837 2.75484,-5.25092 7.57907,-7.83421 13.64267,-7.30542 10.25039,0.89392 14.25653,7.403 14.28735,23.21379 0.0156,8.0315 -0.37421,10.7848 -1.98051,13.9868 -3.82516,7.62508 -12.57884,10.64907 -20.09344,6.94135 z M 387.71209,463 c 1.84646,-3.66818 1.68165,-20.33791 -0.23777,-24.04966 -2.00598,-3.87913 -5.74786,-3.98956 -8.20127,-0.24203 -2.6994,4.1233 -2.57422,22.19741 0.17477,25.23444 2.56259,2.83109 6.59625,2.37094 8.26427,-0.94275 z m 107.63417,8.9459 C 489.82095,468.40618 488.5,464.17182 488.5,450 c 0,-11.25001 0.22658,-12.86435 2.26576,-16.14354 2.66407,-4.28405 7.50426,-6.85646 12.90097,-6.85646 5.82778,0 10.43976,2.97173 13.33327,8.59129 2.18977,4.25281 2.49477,6.09957 2.45782,14.88202 -0.0504,11.9734 -2.27164,18.22343 -7.63979,21.49628 -4.44675,2.71109 -12.22038,2.69991 -16.47177,-0.0237 z m 10.64794,-6.9428 c 3.76407,-2.01447 5.01602,-18.58563 2.00288,-26.51079 -1.4246,-3.74697 -4.96015,-4.23656 -7.68849,-1.06468 -2.07895,2.41693 -2.30859,3.67959 -2.30859,12.69388 0,13.47653 2.37132,17.89087 7.9942,14.88159 z m 31.77941,-8.15037 -0.27361,-17.14727 -3.14436,2.64727 c -3.95182,3.32708 -4.74789,3.30951 -7.21791,-0.15931 l -1.99846,-2.80657 7.18036,-5.67965 c 6.16404,-4.87574 7.78193,-5.6816 11.43037,-5.69343 L 548,428 v 23 23 h -4.97639 -4.97638 z M 346,456.41597 v -16.58403 l -3.85479,3.05305 -3.85479,3.05305 -2.14521,-2.28347 c -1.17987,-1.25591 -2.12541,-2.70447 -2.1012,-3.21902 0.0242,-0.51455 3.0617,-3.29392 6.75,-6.17638 5.6795,-4.43861 7.35654,-5.24223 10.95599,-5.25 L 356,429 v 22 22 h -5 -5 z m 71.1827,0.0827 c 0.17452,-9.07574 0.15706,-16.50074 -0.0388,-16.5 -0.19585,7.3e-4 -2.04779,1.34118 -4.11542,2.97877 -3.52089,2.7886 -3.85336,2.86788 -5.2418,1.25 -3.06447,-3.57086 -2.84518,-4.09397 4.05231,-9.66689 C 417.70987,429.8171 419.32944,429 422.86059,429 H 427 v 22 22 h -5.0673 -5.0673 z M 461,406.4057 c -8.43429,-3.65331 -12.78011,-12.03878 -13.71609,-26.46583 -1.27919,-19.7174 4.37146,-32.80596 15.49714,-35.89586 10.97689,-3.04858 20.52924,1.54945 25.34267,12.19871 2.15074,4.75829 2.37628,6.63354 2.37628,19.75728 0,13.13513 -0.22432,14.99635 -2.38307,19.77308 -1.31069,2.90019 -3.68717,6.3704 -5.28106,7.71157 -5.32395,4.47981 -15.19014,5.79964 -21.83587,2.92105 z m 11.70097,-10.9088 c 1.18028,-0.82671 2.71007,-3.18921 3.39952,-5.25 1.6936,-5.06224 1.54709,-24.61186 -0.22282,-29.73344 -2.46691,-7.13847 -9.8152,-8.07713 -12.94199,-1.65319 -1.79699,3.69188 -2.44302,23.29485 -0.98274,29.82005 1.67702,7.4937 5.93018,10.19113 10.74803,6.81658 z M 317,383.40688 v -23.59312 l -4.88878,4.09312 C 309.42239,366.1581 306.7602,368 306.19525,368 c -0.56496,0 -2.37996,-1.70801 -4.03334,-3.79558 l -3.00615,-3.79557 10.32472,-8.20443 C 319.63061,344.13873 319.89984,344 325.4026,344 H 331 v 31.5 31.5 h -7 -7 z m 49.7681,0.0997 -0.2681,-23.49346 -4.5,3.95082 c -2.475,2.17296 -5.02469,3.97001 -5.66597,3.99346 -0.64128,0.0235 -2.5356,-1.68666 -4.20959,-3.80024 l -3.04362,-3.84288 10.39848,-8.15712 C 369.65842,344.17207 369.99508,344 375.43889,344 H 381 v 31.5 31.5 h -6.9819 -6.9819 z M 417,383.41493 v -23.58506 l -5.13063,4.08506 C 409.04753,366.16172 406.38029,368 405.94218,368 c -1.35508,0 -6.96125,-7.38243 -6.1796,-8.13754 0.40558,-0.39181 5.01242,-4.1194 10.23742,-8.28353 9.34327,-7.44625 9.59486,-7.57122 15.25,-7.57504 L 431,344 v 31.5 31.5 h -7 -7 z M 90.234854,335.50255 C 62.704003,330.51205 38.397232,315.77995 21.912925,294.0933 15.308996,285.40521 6.5356968,267.49691 3.9858221,257.5 -3.8074066,226.94627 1.2960381,196.31281 18.482596,170.483 c 15.651398,-23.5226 41.551948,-40.61856 69.597641,-45.93874 4.553675,-0.86381 8.373827,-1.67715 8.489227,-1.80742 0.1154,-0.13026 1.36906,-4.51184 2.785912,-9.73684 C 106.46375,86.786044 119.40007,64.552052 138.96298,44.925355 156.73191,27.098478 176.06756,15.128464 199.33838,7.5490805 215.78617,2.1919806 227.10631,0.5 246.5,0.5 c 19.39369,0 30.71383,1.6919806 47.16162,7.0490805 38.69965,12.6046025 70.73058,40.3652045 89.31627,77.4087235 4.76598,9.499154 9.66661,22.887596 11.96475,32.687486 l 1.2066,5.14528 19.17538,0.47354 c 16.84741,0.41605 20.32872,0.79734 28.67538,3.14063 37.3772,10.4935 66.44886,40.0678 76.10399,77.41983 2.30485,8.9166 1.87633,13.16211 -1.82003,18.03154 -4.599,6.05853 -11.60995,7.61677 -18.74008,4.16513 -4.89131,-2.36784 -7.27546,-6.09392 -9.18909,-14.36119 -0.78423,-3.38803 -3.48471,-10.40436 -6.00107,-15.59185 -3.9221,-8.08544 -5.95116,-10.81263 -14.21446,-19.10511 -10.42864,-10.46549 -17.89079,-15.29712 -29.97134,-19.40598 -23.44968,-7.97575 -46.29946,-4.84491 -68.80474,9.42752 -9.93044,6.2977 -21.97271,2.03591 -24.40774,-8.63798 -1.89829,-8.32111 1.71419,-13.92816 13.33748,-20.70156 6.33412,-3.69117 6.58985,-3.98851 6.02044,-7 C 363.36762,115.06586 353.29464,92.055426 344.13724,79.98661 336.89287,70.439029 322.30474,56.805616 312.4813,50.402368 292.45106,37.346002 270.86814,31.00085 246.5,31.004562 c -18.9598,0.0029 -35.32883,3.61634 -51.80876,11.436744 -23.40223,11.105316 -44.85433,31.98555 -56.3235,54.822043 -4.70539,9.368991 -10.57607,25.590541 -9.74691,26.932151 0.27346,0.44248 1.41677,0.8045 2.54068,0.8045 6.3868,0 30.24977,10.30425 38.67363,16.69963 12.65943,9.61101 7.48856,28.28525 -7.83514,28.29607 -3.50551,0.002 -5.93649,-0.88184 -11,-4.00146 C 126.31248,150.78431 99.580817,149.20468 74.5,161.47369 54.143566,171.43163 39.265349,189.33325 33.338193,211 c -2.752902,10.06324 -2.494443,29.24787 0.525415,39 6.875478,22.20322 23.186866,40.88678 43.524622,49.85443 13.103466,5.77779 8.496745,5.51287 106.11177,6.10221 l 90,0.54336 3.64354,2.26576 c 9.68675,6.02379 9.01254,21.37008 -1.16347,26.48269 -3.23806,1.62685 -9.56501,1.74227 -90.98007,1.65975 -67.70928,-0.0686 -89.143228,-0.38657 -94.765146,-1.40565 z M 360.38391,311.08688 c -9.23665,-4.19453 -12.75967,-13.70004 -12.23194,-33.00324 0.32332,-11.82623 0.56104,-13.14548 3.34803,-18.5799 3.79304,-7.39614 8.97243,-10.5149 17.40728,-10.48178 15.95801,0.0627 23.08678,11.98397 21.89312,36.61142 -0.48854,10.07964 -2.68699,17.32748 -6.58859,21.72132 -4.76941,5.37111 -16.25674,7.17039 -23.8279,3.73218 z M 375.4511,298 c 1.79118,-3.05976 2.0489,-5.19808 2.0489,-17 0,-11.11867 -0.31793,-14.08238 -1.80236,-16.80159 -3.12698,-5.72805 -8.21908,-6.05938 -12.15269,-0.79074 -1.66586,2.23124 -2.08223,4.60937 -2.3921,13.66274 -0.6506,19.00783 1.56512,25.33383 8.66293,24.73312 2.89029,-0.24462 3.98411,-0.98288 5.63532,-3.80353 z m 139.73515,14.28591 c -1.27256,-0.24294 -4.26764,-2.31916 -6.65574,-4.61381 -5.82241,-5.59458 -7.87736,-12.51069 -7.92498,-26.6721 -0.0194,-5.775 0.55428,-12.85419 1.27489,-15.73153 2.87064,-11.46224 10.34324,-16.92667 21.99466,-16.08389 10.87672,0.78675 16.72195,6.97879 19.23927,20.38076 1.22725,6.53376 0.61556,22.78931 -1.07441,28.55229 -3.37634,11.51373 -13.30876,16.75418 -26.85369,14.16828 z m 10.79941,-11.27823 c 3.20004,-1.71262 4.51492,-7.69726 4.50571,-20.50768 -0.007,-9.99217 -0.34182,-12.65594 -2,-15.92032 -3.4842,-6.85917 -9.30617,-6.50764 -12.871,0.77716 -1.51855,3.10318 -1.87431,6.07925 -1.85196,15.49211 0.0276,11.61809 0.93322,16.05888 3.95618,19.39922 1.7586,1.94323 5.42023,2.27987 8.26107,0.75951 z M 317.14453,288.4999 c 0.19551,-12.92506 0.19292,-23.50006 -0.006,-23.5 -0.19867,5e-5 -2.51112,1.8001 -5.13878,4.0001 -2.62766,2.2 -5.25471,4 -5.83789,4 -1.7014,0 -6.58035,-6.98511 -5.56598,-7.96873 0.49713,-0.48206 4.89769,-4.0613 9.77903,-7.95387 8.72743,-6.9596 8.97294,-7.0774 14.75,-7.0774 H 331 v 31 31 h -7.10547 -7.10546 z m 153.07084,-0.40917 0.28463,-23.90926 -5.15949,4.40926 C 462.50279,271.01583 459.73029,273 459.1794,273 458.05694,273 453,267.29806 453,266.03244 c 0,-0.44777 4.25719,-4.23824 9.46042,-8.42328 9.23099,-7.42462 9.59477,-7.60916 15,-7.60916 H 483 v 31 31 h -6.53463 -6.53462 z"
         id="path12" />
      <path
         style="fill:#d25858"
         d="m 389.6693,561.95451 c -3.03406,-2.38659 -4.65815,-7.42622 -4.65815,-14.45451 0,-10.84925 3.76335,-16.5 10.98885,-16.5 7.98378,0 11.50531,6.32225 10.84168,19.46417 -0.36616,7.25098 -0.59741,7.92838 -3.63215,10.63992 -4.0026,3.57632 -9.62581,3.9295 -13.54023,0.85042 z m 9.37492,-5.50779 c 0.79585,-0.95894 1.28911,-4.38229 1.28911,-8.94672 0,-7.77655 -1.14659,-10.5 -4.42059,-10.5 C 393.1602,537 392,540.11344 392,547.5 c 0,3.64732 0.46583,7.5019 1.03518,8.56574 1.24634,2.32879 4.23523,2.51829 6.00904,0.38098 z M 421,551.41111 v -12.5889 l -3.11575,2.62173 c -2.94301,2.47639 -3.19072,2.52289 -4.46819,0.8389 -0.74385,-0.98056 -1.36676,-2.09973 -1.38426,-2.48703 C 411.95619,538.12147 421.46684,532 424.1438,532 H 427 v 16 16 h -3 -3 z M 300.00873,521.16258 c -4.53545,-4.53546 -5.38221,-17.6721 -1.60937,-24.96796 3.36242,-6.50221 13.03507,-6.66795 17.31701,-0.29674 C 317.60282,498.7048 318,500.63548 318,506.99866 318,519.74603 315.23721,524 306.95826,524 c -3.18332,0 -4.75299,-0.64088 -6.94953,-2.83742 z m 9.3286,-3.64276 c 2.95787,-2.95788 3.24219,-15.78373 0.42716,-19.26982 -1.71298,-2.12133 -4.74454,-1.43267 -5.78924,1.3151 -1.55551,4.0913 -1.19809,14.67174 0.58145,17.21239 1.82726,2.60877 2.76809,2.75486 4.78063,0.74233 z M 332,512.06336 C 332,505.42851 331.6915,500 331.31445,500 c -0.37705,0 -1.73033,0.98152 -3.00729,2.18116 -2.28187,2.14371 -2.34683,2.148 -3.78265,0.25 -0.80349,-1.06214 -1.47521,-2.17619 -1.49271,-2.47567 -0.0175,-0.29949 2.15473,-2.21199 4.82715,-4.25 C 331.0989,493.23467 333.77297,492 335.88435,492 h 3.16644 l -0.2754,15.75 -0.27539,15.75 -3.25,0.31336 -3.25,0.31336 z m 124.14857,9.4082 c -4.86464,-4.09332 -6.39321,-9.61749 -5.98028,-21.61239 C 450.72013,483.82934 454.21637,479 465.26943,479 c 8.80605,0 12.96448,4.55296 14.84959,16.25844 1.13823,7.06776 -0.25908,18.47722 -2.787,22.75664 C 474.90963,522.11585 470.9242,524 464.67243,524 c -4.44451,0 -6.10399,-0.49225 -8.52386,-2.52844 z m 11.99065,-6.38321 c 2.23301,-1.80818 2.36078,-2.53317 2.36078,-13.39501 0,-9.97145 -0.25606,-11.76631 -1.94483,-13.63237 -4.93545,-5.45362 -9.55114,0.88701 -9.55362,13.12393 -0.002,8.24629 1.10689,12.56969 3.73461,14.5651 2.16947,1.64743 2.61952,1.59232 5.40306,-0.66165 z M 499,507.00767 v -17.10192 l -4.07437,3.27426 -4.07438,3.27425 -1.90339,-2.47713 c -1.04686,-1.36242 -1.91339,-2.76394 -1.92562,-3.11449 -0.0122,-0.35055 3.13671,-3.18968 6.99766,-6.30918 6.12728,-4.95062 7.4942,-5.6325 10.75,-5.36264 L 508.5,479.5 v 22 22 l -4.75,0.30479 -4.75,0.30479 z m 30.5,16.04697 c -5.65039,-2.31266 -8.396,-9.27356 -8.45611,-21.43862 -0.0545,-11.0206 1.34221,-15.86983 5.66358,-19.66404 2.90936,-2.55445 4.15509,-2.95198 9.2506,-2.95198 4.83975,0 6.42364,0.45031 8.89336,2.52844 4.63962,3.90398 6.66293,10.39389 6.56583,21.06033 -0.13614,14.95388 -4.74563,21.48292 -15.07155,21.34784 -2.66514,-0.0349 -5.74571,-0.43175 -6.84571,-0.88197 z m 9.63922,-7.96629 c 2.23466,-1.80952 2.36078,-2.52923 2.36078,-13.47222 0,-10.46662 -0.20179,-11.76237 -2.13247,-13.69304 C 534.33255,482.88811 530,489.12256 530,501.40278 c 0,8.04239 1.12561,12.36485 3.73616,14.34722 2.16947,1.64743 2.61952,1.59232 5.40306,-0.66165 z M 305.19236,472.38108 c -1.88514,-0.96132 -4.25049,-3.44877 -5.5,-5.7839 C 297.80049,463.06157 297.5,460.92378 297.5,451 c 0,-9.65701 0.32861,-12.12636 2.05049,-15.40837 2.75484,-5.25092 7.57907,-7.83421 13.64267,-7.30542 10.27185,0.89579 14.28697,7.42947 14.2655,23.21379 -0.0151,11.13475 -1.72284,16.23791 -6.63417,19.8251 -3.66795,2.67905 -11.42213,3.20286 -15.63213,1.05598 z m 11.28196,-9.33142 C 317.51396,461.03923 318,457.2005 318,451 c 0,-10.64501 -1.59759,-15 -5.50263,-15 -4.43739,0 -5.99737,4.058 -5.99737,15.60103 0,8.61628 0.29404,10.51391 1.90499,12.29398 2.7821,3.0742 6.2292,2.71307 8.06933,-0.84535 z m 59.93224,9.37849 c -1.7014,-0.83947 -4.1764,-3.41673 -5.5,-5.72723 C 368.74752,462.93208 368.5,461.31718 368.5,451 c 0,-9.65701 0.32861,-12.12636 2.05049,-15.40837 2.75484,-5.25092 7.57907,-7.83421 13.64267,-7.30542 10.25039,0.89392 14.25653,7.403 14.28735,23.21379 0.0156,8.0315 -0.37421,10.7848 -1.98051,13.9868 -3.82516,7.62508 -12.57884,10.64907 -20.09344,6.94135 z M 387.71209,463 c 1.84646,-3.66818 1.68165,-20.33791 -0.23777,-24.04966 -2.00598,-3.87913 -5.74786,-3.98956 -8.20127,-0.24203 -2.6994,4.1233 -2.57422,22.19741 0.17477,25.23444 2.56259,2.83109 6.59625,2.37094 8.26427,-0.94275 z m 108.23986,8.7466 C 489.7343,467.55653 488.5,464.03735 488.5,450.5 c 0,-10.20151 0.29975,-12.50889 2,-15.39547 3.22501,-5.47521 6.8651,-7.60453 13,-7.60453 6.53915,0 10.02221,2.23922 13.31263,8.55854 2.09524,4.02395 2.28316,5.52249 1.99904,15.94146 -0.27498,10.08393 -0.60931,11.97589 -2.7151,15.36473 -4.13972,6.66203 -13.68128,8.73752 -20.14462,4.38187 z m 11.70986,-8.35321 c 2.2858,-3.48857 3.00451,-17.44658 1.17377,-22.79582 -1.69067,-4.93997 -3.82099,-6.38088 -7.1747,-4.85283 -1.97388,0.89937 -2.74468,2.34194 -3.69355,6.91263 -1.40424,6.76418 -0.56557,17.77032 1.60725,21.09263 2.02986,3.10371 5.9327,2.93161 8.08723,-0.35661 z M 346,456.41597 v -16.58403 l -3.85479,3.05305 -3.85479,3.05305 -2.14521,-2.28347 c -1.17987,-1.25591 -2.12541,-2.70447 -2.1012,-3.21902 0.0242,-0.51455 3.0617,-3.29392 6.75,-6.17638 5.6795,-4.43861 7.35654,-5.24223 10.95599,-5.25 L 356,429 v 22 22 h -5 -5 z m 71.1827,0.0827 c 0.17452,-9.07574 0.15706,-16.50074 -0.0388,-16.5 -0.19585,7.3e-4 -2.04779,1.34118 -4.11542,2.97877 -3.52089,2.7886 -3.85336,2.86788 -5.2418,1.25 -3.06447,-3.57086 -2.84518,-4.09397 4.05231,-9.66689 C 417.70987,429.8171 419.32944,429 422.86059,429 H 427 v 22 22 h -5.0673 -5.0673 z M 538.15902,456 c 0.2144,-9.35 0.11107,-17 -0.22962,-17 -0.34068,0 -1.47163,0.94168 -2.51322,2.09262 -3.47739,3.84248 -5.30124,4.26381 -7.42562,1.71542 -1.05821,-1.26942 -1.93899,-2.62614 -1.95729,-3.01494 -0.0183,-0.38879 3.054,-3.20129 6.82732,-6.25 5.84987,-4.72648 7.47042,-5.5431 11,-5.5431 H 548 v 22.5 22.5 h -5.11539 -5.1154 z m -75.94761,-49.12878 c -5.14921,-1.48499 -10.52922,-7.58739 -12.71433,-14.42151 -2.56466,-8.02118 -2.61532,-25.46814 -0.0984,-33.90496 2.39496,-8.02813 7.22307,-12.87231 14.35137,-14.39913 11.55523,-2.47504 20.99566,2.83116 24.87945,13.98404 2.64577,7.59774 2.65531,28.11655 0.0166,35.69076 -3.90911,11.22072 -14.55523,16.47672 -26.43462,13.0508 z m 12.43086,-13.65662 c 3.89808,-5.8051 4.41708,-25.35012 0.89687,-33.77516 -3.07869,-7.36834 -10.7286,-6.74169 -13.38054,1.09607 -1.66725,4.92755 -1.78868,25.77318 -0.17454,29.96266 2.86346,7.43208 8.65686,8.67534 12.65821,2.71643 z M 317.146,383.14839 l 0.354,-23.85161 -5.34167,4.35161 c -2.93792,2.39339 -5.63792,4.3516 -6,4.35158 -0.72429,-3e-5 -6.15833,-6.56405 -6.15833,-7.43893 0,-0.30019 4.55045,-4.171 10.11211,-8.6018 9.99011,-7.95879 10.1741,-8.05238 15.25,-7.75761 L 330.5,344.5 l 0.26425,31.25 0.26424,31.25 h -7.11824 -7.11825 z m 50.03858,-0.0199 0.31542,-23.87146 -5.84466,4.59335 -5.84467,4.59336 -2.87843,-3.47189 c -1.58314,-1.90954 -2.89054,-3.80596 -2.90534,-4.21428 -0.0148,-0.40831 4.49623,-4.34581 10.02449,-8.75 9.51123,-7.57727 10.31734,-8.00761 15,-8.00761 H 380 v 31.5 31.5 h -6.56542 -6.56542 z m 50.03079,2.4e-4 0.28463,-23.87122 -5.82609,4.57852 -5.82609,4.57852 -3.34608,-3.95729 c -1.84034,-2.17652 -3.0436,-4.22441 -2.67391,-4.55087 0.36969,-0.32646 5.04911,-4.03896 10.3987,-8.25 C 419.41769,344.42142 420.22956,344 424.97653,344 H 430 v 31.5 31.5 h -6.53463 -6.53462 z M 90.234854,335.50255 C 62.704003,330.51205 38.397232,315.77995 21.912925,294.0933 15.308996,285.40521 6.5356968,267.49691 3.9858221,257.5 -3.8074066,226.94627 1.2960381,196.31281 18.482596,170.483 c 15.651398,-23.5226 41.551948,-40.61856 69.597641,-45.93874 4.553675,-0.86381 8.373827,-1.67715 8.489227,-1.80742 0.1154,-0.13026 1.36906,-4.51184 2.785912,-9.73684 C 106.46375,86.786044 119.40007,64.552052 138.96298,44.925355 156.73191,27.098478 176.06756,15.128464 199.33838,7.5490805 215.78617,2.1919806 227.10631,0.5 246.5,0.5 c 19.39369,0 30.71383,1.6919806 47.16162,7.0490805 38.69965,12.6046025 70.73058,40.3652045 89.31627,77.4087235 4.76598,9.499154 9.66661,22.887596 11.96475,32.687486 l 1.2066,5.14528 19.17538,0.47354 c 16.84741,0.41605 20.32872,0.79734 28.67538,3.14063 37.3772,10.4935 66.44886,40.0678 76.10399,77.41983 2.30485,8.9166 1.87633,13.16211 -1.82003,18.03154 -4.599,6.05853 -11.60995,7.61677 -18.74008,4.16513 -4.89131,-2.36784 -7.27546,-6.09392 -9.18909,-14.36119 -0.78423,-3.38803 -3.48471,-10.40436 -6.00107,-15.59185 -3.9221,-8.08544 -5.95116,-10.81263 -14.21446,-19.10511 -10.42864,-10.46549 -17.89079,-15.29712 -29.97134,-19.40598 -23.44968,-7.97575 -46.29946,-4.84491 -68.80474,9.42752 -9.93044,6.2977 -21.97271,2.03591 -24.40774,-8.63798 -1.89829,-8.32111 1.71419,-13.92816 13.33748,-20.70156 6.33412,-3.69117 6.58985,-3.98851 6.02044,-7 C 363.36762,115.06586 353.29464,92.055426 344.13724,79.98661 336.89287,70.439029 322.30474,56.805616 312.4813,50.402368 292.45106,37.346002 270.86814,31.00085 246.5,31.004562 c -18.9598,0.0029 -35.32883,3.61634 -51.80876,11.436744 -23.40223,11.105316 -44.85433,31.98555 -56.3235,54.822043 -4.70539,9.368991 -10.57607,25.590541 -9.74691,26.932151 0.27346,0.44248 1.41677,0.8045 2.54068,0.8045 6.3868,0 30.24977,10.30425 38.67363,16.69963 12.65943,9.61101 7.48856,28.28525 -7.83514,28.29607 -3.50551,0.002 -5.93649,-0.88184 -11,-4.00146 C 126.31248,150.78431 99.580817,149.20468 74.5,161.47369 54.143566,171.43163 39.265349,189.33325 33.338193,211 c -2.752902,10.06324 -2.494443,29.24787 0.525415,39 6.875478,22.20322 23.186866,40.88678 43.524622,49.85443 13.103466,5.77779 8.496745,5.51287 106.11177,6.10221 l 90,0.54336 3.64354,2.26576 c 9.68675,6.02379 9.01254,21.37008 -1.16347,26.48269 -3.23806,1.62685 -9.56501,1.74227 -90.98007,1.65975 -67.70928,-0.0686 -89.143228,-0.38657 -94.765146,-1.40565 z M 360.38391,311.08688 c -9.23665,-4.19453 -12.75967,-13.70004 -12.23194,-33.00324 0.32332,-11.82623 0.56104,-13.14548 3.34803,-18.5799 3.79304,-7.39614 8.97243,-10.5149 17.40728,-10.48178 15.95801,0.0627 23.08678,11.98397 21.89312,36.61142 -0.48854,10.07964 -2.68699,17.32748 -6.58859,21.72132 -4.76941,5.37111 -16.25674,7.17039 -23.8279,3.73218 z M 375.4511,298 c 1.79118,-3.05976 2.0489,-5.19808 2.0489,-17 0,-11.11867 -0.31793,-14.08238 -1.80236,-16.80159 -3.12698,-5.72805 -8.21908,-6.05938 -12.15269,-0.79074 -1.66586,2.23124 -2.08223,4.60937 -2.3921,13.66274 -0.6506,19.00783 1.56512,25.33383 8.66293,24.73312 2.89029,-0.24462 3.98411,-0.98288 5.63532,-3.80353 z m 139.73515,14.28591 c -1.27256,-0.24294 -4.26764,-2.31916 -6.65574,-4.61381 -5.82241,-5.59458 -7.87736,-12.51069 -7.92498,-26.6721 -0.0194,-5.775 0.55428,-12.85419 1.27489,-15.73153 2.87064,-11.46224 10.34324,-16.92667 21.99466,-16.08389 10.87672,0.78675 16.72195,6.97879 19.23927,20.38076 1.22725,6.53376 0.61556,22.78931 -1.07441,28.55229 -3.37634,11.51373 -13.30876,16.75418 -26.85369,14.16828 z m 10.79941,-11.27823 c 3.20004,-1.71262 4.51492,-7.69726 4.50571,-20.50768 -0.007,-9.99217 -0.34182,-12.65594 -2,-15.92032 -3.4842,-6.85917 -9.30617,-6.50764 -12.871,0.77716 -1.51855,3.10318 -1.87431,6.07925 -1.85196,15.49211 0.0276,11.61809 0.93322,16.05888 3.95618,19.39922 1.7586,1.94323 5.42023,2.27987 8.26107,0.75951 z M 317.14453,288.4999 c 0.19551,-12.92506 0.19292,-23.50006 -0.006,-23.5 -0.19867,5e-5 -2.51112,1.8001 -5.13878,4.0001 -2.62766,2.2 -5.25471,4 -5.83789,4 -1.7014,0 -6.58035,-6.98511 -5.56598,-7.96873 0.49713,-0.48206 4.89769,-4.0613 9.77903,-7.95387 8.72743,-6.9596 8.97294,-7.0774 14.75,-7.0774 H 331 v 31 31 h -7.10547 -7.10546 z m 153.07084,-0.40917 0.28463,-23.90926 -5.15949,4.40926 C 462.50279,271.01583 459.73029,273 459.1794,273 458.05694,273 453,267.29806 453,266.03244 c 0,-0.44777 4.25719,-4.23824 9.46042,-8.42328 9.23099,-7.42462 9.59477,-7.60916 15,-7.60916 H 483 v 31 31 h -6.53463 -6.53462 z"
         id="path11" />
      <path
         style="fill:#5d5d5d"
         d="m 390.88805,562.55452 c -1.43657,-0.81055 -3.23657,-2.95441 -4,-4.76412 -1.98694,-4.71007 -1.76429,-17.48098 0.37409,-21.45711 3.32689,-6.18604 13.37374,-6.59034 17.2374,-0.69364 3.59658,5.48907 3.10995,20.37768 -0.81519,24.94092 -2.71257,3.15356 -8.98951,4.12183 -12.7963,1.97395 z m 6.79939,-4.34018 C 399.53505,557.03952 401,552.3012 401,547.5 c 0,-12.99929 -7.91888,-15.78672 -9.37519,-3.30005 -1.12205,9.62077 1.91854,16.64942 6.06263,14.01439 z M 421,550.93191 v -12.0681 l -3.03525,2.16129 c -2.43963,1.73717 -3.32267,1.92274 -4.5,0.94565 C 412.65914,541.30215 412,540.45268 412,540.08304 412,538.49271 421.92733,532 424.35895,532 H 427 v 15.5 15.5 h -3 -3 z M 300.00873,521.16258 c -4.53545,-4.53546 -5.38221,-17.6721 -1.60937,-24.96796 3.36242,-6.50221 13.03507,-6.66795 17.31701,-0.29674 C 317.60282,498.7048 318,500.63548 318,506.99866 318,519.74603 315.23721,524 306.95826,524 c -3.18332,0 -4.75299,-0.64088 -6.94953,-2.83742 z m 9.3286,-3.64276 c 2.95787,-2.95788 3.24219,-15.78373 0.42716,-19.26982 -1.71298,-2.12133 -4.74454,-1.43267 -5.78924,1.3151 -1.55551,4.0913 -1.19809,14.67174 0.58145,17.21239 1.82726,2.60877 2.76809,2.75486 4.78063,0.74233 z M 332,512.06336 C 332,505.42851 331.6915,500 331.31445,500 c -0.37705,0 -1.73033,0.98152 -3.00729,2.18116 -2.28187,2.14371 -2.34683,2.148 -3.78265,0.25 -0.80349,-1.06214 -1.47521,-2.17619 -1.49271,-2.47567 -0.0175,-0.29949 2.15473,-2.21199 4.82715,-4.25 C 331.0989,493.23467 333.77297,492 335.88435,492 h 3.16644 l -0.2754,15.75 -0.27539,15.75 -3.25,0.31336 -3.25,0.31336 z m 125.41996,10.10984 c -4.68319,-2.94533 -6.74034,-8.26597 -7.2197,-18.6732 -0.48848,-10.60505 0.82004,-16.37198 4.70018,-20.7146 2.42735,-2.71668 3.59142,-3.18707 8.70091,-3.51598 11.26558,-0.72518 15.53687,4.47742 16.19863,19.73058 0.48283,11.12895 -0.77951,16.82635 -4.70042,21.2146 -2.42735,2.71668 -3.59142,3.18707 -8.70091,3.51598 -4.57545,0.29453 -6.58957,-0.0548 -8.97869,-1.55738 z m 10.26748,-5.95886 C 469.92783,514.78977 471,509.85956 471,500.98195 c 0,-9.48118 -1.17247,-13.58453 -4.15176,-14.53012 C 461.31732,484.69639 459,489.16444 459,501.58412 c 0,11.00455 1.70841,15.38525 6,15.38525 0.825,0 2.03435,-0.33976 2.68744,-0.75503 z m 60.73252,5.95886 c -5.38736,-3.38819 -6.92188,-8.09295 -6.90595,-21.1732 0.0148,-12.15214 0.90861,-15.35752 5.42108,-19.44126 3.21804,-2.91228 12.59187,-3.28022 16.76636,-0.6581 5.13019,3.22241 6.64183,7.23958 7.11306,18.90292 0.4652,11.51394 -0.93982,17.08664 -5.35337,21.23295 -3.48419,3.27322 -12.66978,3.88593 -17.04118,1.13669 z m 10.18034,-5.93851 c 2.5483,-1.70155 3.64638,-5.96107 3.68548,-14.29613 0.0232,-4.95357 -0.5175,-10.08377 -1.24899,-11.84975 -1.716,-4.14277 -5.45013,-5.11991 -8.37777,-2.19227 -1.95878,1.95878 -2.15902,3.21327 -2.15902,13.52625 0,9.77493 0.26685,11.6621 1.90499,13.47222 1.94815,2.15268 4.2366,2.64754 6.19531,1.33968 z m -39.43634,-9.73564 c 0.18482,-9.07553 0.1758,-16.50053 -0.0201,-16.5 -0.19585,5.2e-4 -2.043,1.33701 -4.10479,2.96997 l -3.74869,2.96902 -2.33197,-2.48226 c -2.62755,-2.79691 -2.83135,-2.46593 5.46634,-8.87764 C 499.0928,480.9711 501.16093,480 504.17475,480 H 508 v 21.5 21.5 h -4.58604 -4.58604 z M 306.41519,472.63268 c -6.95467,-3.15001 -10.01531,-11.53228 -9.16826,-25.10939 0.71349,-11.43634 3.78156,-16.64606 10.93794,-18.57307 7.77937,-2.09477 15.20948,2.28754 17.84674,10.52608 0.70008,2.18696 1.24215,7.88662 1.20462,12.6659 -0.0769,9.79581 -2.34913,16.57522 -6.45765,19.26723 -3.48067,2.28061 -10.676,2.8934 -14.36339,1.22325 z m 8.9921,-7.94906 c 2.7528,-2.75281 4.11211,-11.14587 3.07992,-19.01699 C 317.57492,438.70989 315.73556,436 311.92592,436 307.75976,436 306,440.42554 306,450.90278 c 0,8.5123 1.08811,12.83637 3.73616,14.84722 2.27753,1.72949 3.01368,1.59107 5.67113,-1.06638 z m 63.21201,8.32571 c -1.58438,-0.49845 -3.95501,-1.91554 -5.26806,-3.14909 -6.96153,-6.54001 -7.10536,-30.17081 -0.22821,-37.4912 4.92355,-5.24088 14.86369,-5.10959 20.24061,0.26732 3.52555,3.52556 4.96288,9.13621 4.96055,19.36364 -0.002,9.56379 -2.38525,16.68476 -6.48065,19.36512 -3.03313,1.98512 -9.56082,2.79673 -13.22424,1.64421 z m 7.78799,-8.32571 c 2.7528,-2.75281 4.11211,-11.14587 3.07992,-19.01699 C 388.57492,438.70989 386.73556,436 382.92592,436 378.75976,436 377,440.42554 377,450.90278 c 0,8.5123 1.08811,12.83637 3.73616,14.84722 2.27753,1.72949 3.01368,1.59107 5.67113,-1.06638 z m 109.54466,7.06298 C 489.7343,467.55653 488.5,464.03735 488.5,450.5 c 0,-10.20151 0.29975,-12.50889 2,-15.39547 3.22501,-5.47521 6.8651,-7.60453 13,-7.60453 6.53915,0 10.02221,2.23922 13.31263,8.55854 2.09524,4.02395 2.28316,5.52249 1.99904,15.94146 -0.27498,10.08393 -0.60931,11.97589 -2.7151,15.36473 -4.13972,6.66203 -13.68128,8.73752 -20.14462,4.38187 z m 11.70986,-8.35321 c 2.2858,-3.48857 3.00451,-17.44658 1.17377,-22.79582 -1.69067,-4.93997 -3.82099,-6.38088 -7.1747,-4.85283 -1.97388,0.89937 -2.74468,2.34194 -3.69355,6.91263 -1.40424,6.76418 -0.56557,17.77032 1.60725,21.09263 2.02986,3.10371 5.9327,2.93161 8.08723,-0.35661 z M 346.77361,455.967 346.5,438.93401 343,441.92636 c -4.27792,3.65745 -5.32586,3.75145 -7.35181,0.65947 -1.55833,-2.37832 -1.47916,-2.49712 5.33165,-8 C 346.47022,430.1498 348.62474,429 351.44665,429 H 355 v 22 22 h -3.97639 -3.97638 z m 71,-0.0284 -0.27361,-17.06141 -4.09954,3.51055 -4.09955,3.51055 -2.14267,-2.89812 -2.14267,-2.89811 7.09445,-5.55103 C 417.95303,429.97918 419.89203,429 423.10224,429 H 427 v 22 22 h -4.47639 -4.47638 z M 538.15902,456 c 0.2144,-9.35 0.11107,-17 -0.22962,-17 -0.34068,0 -1.47163,0.94168 -2.51322,2.09262 -3.47739,3.84248 -5.30124,4.26381 -7.42562,1.71542 -1.05821,-1.26942 -1.93899,-2.62614 -1.95729,-3.01494 -0.0183,-0.38879 3.054,-3.20129 6.82732,-6.25 5.84987,-4.72648 7.47042,-5.5431 11,-5.5431 H 548 v 22.5 22.5 h -5.11539 -5.1154 z m -75.94761,-49.12878 c -5.14921,-1.48499 -10.52922,-7.58739 -12.71433,-14.42151 -2.56466,-8.02118 -2.61532,-25.46814 -0.0984,-33.90496 2.39496,-8.02813 7.22307,-12.87231 14.35137,-14.39913 11.55523,-2.47504 20.99566,2.83116 24.87945,13.98404 2.64577,7.59774 2.65531,28.11655 0.0166,35.69076 -3.90911,11.22072 -14.55523,16.47672 -26.43462,13.0508 z m 12.43086,-13.65662 c 3.89808,-5.8051 4.41708,-25.35012 0.89687,-33.77516 -3.07869,-7.36834 -10.7286,-6.74169 -13.38054,1.09607 -1.66725,4.92755 -1.78868,25.77318 -0.17454,29.96266 2.86346,7.43208 8.65686,8.67534 12.65821,2.71643 z M 317.146,383.14839 l 0.354,-23.85161 -5.34167,4.35161 c -2.93792,2.39339 -5.63792,4.3516 -6,4.35158 -0.72429,-3e-5 -6.15833,-6.56405 -6.15833,-7.43893 0,-0.30019 4.55045,-4.171 10.11211,-8.6018 9.99011,-7.95879 10.1741,-8.05238 15.25,-7.75761 L 330.5,344.5 l 0.26425,31.25 0.26424,31.25 h -7.11824 -7.11825 z m 50.03858,-0.0199 0.31542,-23.87146 -5.84466,4.59335 -5.84467,4.59336 -2.87843,-3.47189 c -1.58314,-1.90954 -2.89054,-3.80596 -2.90534,-4.21428 -0.0148,-0.40831 4.49623,-4.34581 10.02449,-8.75 9.51123,-7.57727 10.31734,-8.00761 15,-8.00761 H 380 v 31.5 31.5 h -6.56542 -6.56542 z m 50.03079,2.4e-4 0.28463,-23.87122 -5.82609,4.57852 -5.82609,4.57852 -3.34608,-3.95729 c -1.84034,-2.17652 -3.0436,-4.22441 -2.67391,-4.55087 0.36969,-0.32646 5.04911,-4.03896 10.3987,-8.25 C 419.41769,344.42142 420.22956,344 424.97653,344 H 430 v 31.5 31.5 h -6.53463 -6.53462 z M 94.249683,335.93376 C 51.256164,330.34403 15.120602,298.46876 3.8312289,256.17543 1.1931111,246.29226 0.23324825,224.07389 1.9747789,213.20336 7.1324533,181.00946 25.688058,154.3446 55.087915,136.87846 63.455418,131.90742 78.843363,126.34337 88.87474,124.66164 L 96.5,123.3833 97.820372,118.94165 C 105.27697,93.858118 109.72475,83.593027 119.43546,69.055882 139.30403,39.312209 166.08767,18.745384 198.97212,7.9806707 215.90988,2.4361028 227.58522,0.63052002 246.5,0.63052002 c 18.91478,0 30.59012,1.80558278 47.52788,7.35015068 C 344.51526,24.507694 381.84036,65.416049 394.9948,118.64054 l 1.02334,4.14053 18.24093,0.4665 c 22.37802,0.57229 32.52725,2.87096 49.24093,11.15242 25.44002,12.60526 44.53582,34.27339 53.6416,60.86745 6.76987,19.77188 4.76244,28.31853 -7.47584,31.82842 -7.80267,2.23777 -16.59814,-3.89049 -18.53312,-12.91299 -3.85752,-17.98698 -15.10916,-35.35638 -29.6032,-45.69911 -13.14268,-9.37842 -26.74226,-14.22771 -42.56664,-15.17825 -15.97237,-0.95943 -30.69625,3.00743 -46.39966,12.50085 -7.76594,4.69485 -11.91091,5.27185 -17.54321,2.44209 -1.91403,-0.96165 -4.54136,-3.32345 -5.8385,-5.24845 -1.96764,-2.92005 -2.29176,-4.45294 -1.95605,-9.25102 0.48704,-6.96092 2.90114,-9.91505 13.04615,-15.96459 7.79712,-4.64947 7.64681,-3.66823 3.02985,-19.77889 -12.36134,-43.134393 -49.96107,-77.006696 -95.0265,-85.606119 -11.5787,-2.209458 -31.97106,-2.209458 -43.54976,0 -38.74127,7.392641 -72.3153,33.459928 -88.65909,68.835979 -3.71629,8.04391 -8.71751,22.60976 -7.92957,23.09458 0.19995,0.12303 3.34599,0.9723 6.99121,1.88726 15.59282,3.91385 35.39066,14.06565 39.41834,20.21267 2.57525,3.93034 2.99814,10.62115 0.9448,14.94826 -2.6354,5.55369 -6.90755,8.12187 -13.51066,8.12187 -4.76538,0 -6.33725,-0.54359 -11.5,-3.97699 -18.65374,-12.40532 -44.15998,-15.70108 -65.758173,-8.49686 -13.043151,4.35062 -21.76444,9.81115 -31.831835,19.93039 -7.093095,7.12962 -9.429788,10.31802 -13.264164,18.09883 -6.880536,13.96215 -9.008726,23.6205 -8.355432,37.91939 0.357832,7.832 1.231589,13.76837 2.726678,18.52524 9.171657,29.18112 33.960397,50.11154 64.502776,54.46306 4.19724,0.598 40.63316,1.00675 91,1.02087 82.03678,0.023 84.07617,0.07 87.25914,2.01067 9.99226,6.09235 9.54902,20.45124 -0.79502,25.7554 l -4.3879,2.25 -85.53811,-0.1268 c -47.04596,-0.0697 -88.350753,-0.49249 -91.788427,-0.93944 z M 362.79136,312.07111 c -4.98165,-1.61115 -8.64433,-5.07142 -11.47962,-10.84524 C 348.63597,295.77689 348.5,294.82298 348.5,281.5 c 0,-10.82508 0.40195,-15.15104 1.77243,-19.07558 C 353.19494,254.05547 360.21204,249 368.90583,249 c 11.37572,0 18.50388,6.94565 21.00314,20.46538 3.21674,17.40099 -0.6368,34.67905 -8.96348,40.18939 -4.18107,2.7669 -13.31226,3.98227 -18.15413,2.41634 z m 10.44853,-11.04517 c 1.4714,-1.1574 2.97513,-3.82277 3.63486,-6.44282 1.44518,-5.73933 1.31995,-22.92896 -0.20383,-27.97686 -2.2644,-7.50143 -9.37107,-9.76522 -13.04645,-4.15587 -3.75539,5.73144 -4.31547,26.20053 -0.94872,34.67256 2.21573,5.57566 6.44926,7.13976 10.56414,3.90299 z m 141.4153,10.51541 c -5.16831,-1.84276 -8.03677,-4.72853 -10.82437,-10.88974 C 501.73375,296.01663 501.5,294.04586 501.5,281 c 0,-16.95499 1.32519,-21.80247 7.48056,-27.36347 4.36928,-3.94739 10.08377,-5.30385 17.59731,-4.17712 6.21571,0.9321 11.64662,5.9237 14.54483,13.36831 2.90343,7.45798 3.24566,26.64155 0.62844,35.22669 -3.63411,11.9208 -15.25939,17.70726 -27.09595,13.48694 z m 9.73181,-9.49839 c 4.86922,-1.85127 6.113,-6.13277 6.113,-21.04296 0,-11.107 -0.31873,-14.08378 -1.7981,-16.79335 -3.71236,-6.79946 -10.33074,-6.53132 -13.46638,0.54559 -1.25898,2.8414 -1.66057,6.77075 -1.66057,16.24776 0,15.87774 1.38804,19.63225 8.10995,21.93661 0.1017,0.0349 1.31764,-0.36728 2.7021,-0.89365 z M 318,287.93365 V 263.8673 l -6.06761,4.76698 -6.0676,4.76698 -2.6824,-3.42746 c -1.47531,-1.8851 -2.68239,-3.71464 -2.68239,-4.06565 0,-0.351 4.35025,-4.07392 9.66722,-8.27316 9.17206,-7.24393 9.92755,-7.63499 14.75,-7.63499 H 330 v 31 31 h -6 -6 z M 470.21423,288 c 0.27215,-13.2 0.2889,-24 0.0372,-24 -0.25167,0 -2.70988,2.025 -5.46267,4.5 -2.7528,2.475 -5.35301,4.5 -5.77824,4.5 -0.91,0 -6.37591,-6.97109 -5.86153,-7.47563 0.19305,-0.18935 4.62599,-3.75805 9.85099,-7.93044 9.11086,-7.27542 9.71505,-7.58632 14.75,-7.59004 L 483,250 v 31 31 h -6.64029 -6.6403 z"
         id="path10" />
      <path
         style="fill:#c01010"
         d="m 390.88805,562.55452 c -1.43657,-0.81055 -3.23657,-2.95441 -4,-4.76412 -1.98694,-4.71007 -1.76429,-17.48098 0.37409,-21.45711 3.32689,-6.18604 13.37374,-6.59034 17.2374,-0.69364 3.59658,5.48907 3.10995,20.37768 -0.81519,24.94092 -2.71257,3.15356 -8.98951,4.12183 -12.7963,1.97395 z m 6.79939,-4.34018 C 399.53505,557.03952 401,552.3012 401,547.5 c 0,-12.99929 -7.91888,-15.78672 -9.37519,-3.30005 -1.12205,9.62077 1.91854,16.64942 6.06263,14.01439 z M 421,550.93191 v -12.0681 l -3.03525,2.16129 c -2.43963,1.73717 -3.32267,1.92274 -4.5,0.94565 C 412.65914,541.30215 412,540.45268 412,540.08304 412,538.49271 421.92733,532 424.35895,532 H 427 v 15.5 15.5 h -3 -3 z M 301.88805,522.50036 c -6.52603,-3.54683 -7.80549,-21.20596 -2.00639,-27.69202 2.06308,-2.30747 3.48768,-2.94032 6.7177,-2.98423 5.31875,-0.0723 7.76422,1.31496 9.77029,5.54244 2.02781,4.2733 2.15925,15.43186 0.23598,20.03488 -2.56141,6.13032 -8.82627,8.30079 -14.71758,5.09893 z m 8.82209,-6.50922 c 2.57741,-5.09427 1.03171,-18.10875 -2.3027,-19.38828 -0.79904,-0.30663 -2.3426,0.3323 -3.43012,1.41982 -1.63724,1.63724 -1.97732,3.34097 -1.97732,9.90589 0,5.97808 0.39887,8.32744 1.62138,9.54995 2.15386,2.15386 4.54161,1.57057 6.08876,-1.48738 z m 146.70982,6.18206 c -4.68319,-2.94533 -6.74034,-8.26597 -7.2197,-18.6732 -0.48848,-10.60505 0.82004,-16.37198 4.70018,-20.7146 2.42735,-2.71668 3.59142,-3.18707 8.70091,-3.51598 11.26558,-0.72518 15.53687,4.47742 16.19863,19.73058 0.48283,11.12895 -0.77951,16.82635 -4.70042,21.2146 -2.42735,2.71668 -3.59142,3.18707 -8.70091,3.51598 -4.57545,0.29453 -6.58957,-0.0548 -8.97869,-1.55738 z m 10.26748,-5.95886 C 469.92783,514.78977 471,509.85956 471,500.98195 c 0,-9.48118 -1.17247,-13.58453 -4.15176,-14.53012 C 461.31732,484.69639 459,489.16444 459,501.58412 c 0,11.00455 1.70841,15.38525 6,15.38525 0.825,0 2.03435,-0.33976 2.68744,-0.75503 z m 60.73252,5.95886 c -5.38736,-3.38819 -6.92188,-8.09295 -6.90595,-21.1732 0.0148,-12.15214 0.90861,-15.35752 5.42108,-19.44126 3.21804,-2.91228 12.59187,-3.28022 16.76636,-0.6581 5.13019,3.22241 6.64183,7.23958 7.11306,18.90292 0.4652,11.51394 -0.93982,17.08664 -5.35337,21.23295 -3.48419,3.27322 -12.66978,3.88593 -17.04118,1.13669 z m 10.18034,-5.93851 c 2.5483,-1.70155 3.64638,-5.96107 3.68548,-14.29613 0.0232,-4.95357 -0.5175,-10.08377 -1.24899,-11.84975 -1.716,-4.14277 -5.45013,-5.11991 -8.37777,-2.19227 -1.95878,1.95878 -2.15902,3.21327 -2.15902,13.52625 0,9.77493 0.26685,11.6621 1.90499,13.47222 1.94815,2.15268 4.2366,2.64754 6.19531,1.33968 z M 332,510.82569 v -12.17432 l -2.54494,2.39085 c -1.96302,1.84416 -2.92121,2.15351 -4.19048,1.35287 -0.90505,-0.57089 -1.7572,-1.45583 -1.89367,-1.96653 C 322.95146,498.85886 332.80594,492 335.48064,492 H 338 v 15.5 15.5 h -3 -3 z m 167.16396,-4.32664 c 0.18482,-9.07553 0.1758,-16.50053 -0.0201,-16.5 -0.19585,5.2e-4 -2.043,1.33701 -4.10479,2.96997 l -3.74869,2.96902 -2.33197,-2.48226 c -2.62755,-2.79691 -2.83135,-2.46593 5.46634,-8.87764 C 499.0928,480.9711 501.16093,480 504.17475,480 H 508 v 21.5 21.5 h -4.58604 -4.58604 z M 306.41519,472.63268 c -6.95467,-3.15001 -10.01531,-11.53228 -9.16826,-25.10939 0.71349,-11.43634 3.78156,-16.64606 10.93794,-18.57307 7.77937,-2.09477 15.20948,2.28754 17.84674,10.52608 0.70008,2.18696 1.24215,7.88662 1.20462,12.6659 -0.0769,9.79581 -2.34913,16.57522 -6.45765,19.26723 -3.48067,2.28061 -10.676,2.8934 -14.36339,1.22325 z m 8.9921,-7.94906 c 2.7528,-2.75281 4.11211,-11.14587 3.07992,-19.01699 C 317.57492,438.70989 315.73556,436 311.92592,436 307.75976,436 306,440.42554 306,450.90278 c 0,8.5123 1.08811,12.83637 3.73616,14.84722 2.27753,1.72949 3.01368,1.59107 5.67113,-1.06638 z m 63.21201,8.32571 c -1.58438,-0.49845 -3.95501,-1.91554 -5.26806,-3.14909 -6.96153,-6.54001 -7.10536,-30.17081 -0.22821,-37.4912 4.92355,-5.24088 14.86369,-5.10959 20.24061,0.26732 3.52555,3.52556 4.96288,9.13621 4.96055,19.36364 -0.002,9.56379 -2.38525,16.68476 -6.48065,19.36512 -3.03313,1.98512 -9.56082,2.79673 -13.22424,1.64421 z m 7.78799,-8.32571 c 2.7528,-2.75281 4.11211,-11.14587 3.07992,-19.01699 C 388.57492,438.70989 386.73556,436 382.92592,436 378.75976,436 377,440.42554 377,450.90278 c 0,8.5123 1.08811,12.83637 3.73616,14.84722 2.27753,1.72949 3.01368,1.59107 5.67113,-1.06638 z m 111.87896,8.25639 c -7.10506,-2.16309 -10.96337,-12.23059 -10.01121,-26.1223 0.93013,-13.57028 5.33991,-19.10342 15.22496,-19.10342 6.7036,0 10.03192,2.00985 13,7.85024 1.65592,3.2584 2,5.91396 2,15.43547 0,9.70151 -0.31278,12.03102 -2,14.89547 -3.89919,6.61979 -10.8185,9.29597 -18.21375,7.04454 z m 9.30876,-9.045 C 509.23154,462.08667 509.5,460.199 509.5,450.5 c 0,-9.699 -0.26846,-11.58667 -1.90499,-13.39501 -2.65982,-2.93907 -6.16843,-2.68567 -8.32196,0.60103 -1.4014,2.13881 -1.77305,4.82056 -1.77305,12.79398 0,7.97342 0.37165,10.65517 1.77305,12.79398 2.15353,3.2867 5.66214,3.5401 8.32196,0.60103 z M 346.77361,455.967 346.5,438.93401 343,441.92636 c -4.27792,3.65745 -5.32586,3.75145 -7.35181,0.65947 -1.55833,-2.37832 -1.47916,-2.49712 5.33165,-8 C 346.47022,430.1498 348.62474,429 351.44665,429 H 355 v 22 22 h -3.97639 -3.97638 z m 71,-0.0284 -0.27361,-17.06141 -4.09954,3.51055 -4.09955,3.51055 -2.14267,-2.89812 -2.14267,-2.89811 7.09445,-5.55103 C 417.95303,429.97918 419.89203,429 423.10224,429 H 427 v 22 22 h -4.47639 -4.47638 z M 539,455.43305 V 437.8661 l -4.33756,3.55431 -4.33757,3.5543 -2.34919,-2.5006 c -2.65201,-2.82293 -2.94566,-2.35533 5.90178,-9.39775 5.18856,-4.13001 7.09939,-5.07636 10.25,-5.07636 H 548 V 450.5 473 H 543.5 539 Z M 318,383 c 0,-13.2 -0.3949,-24 -0.87756,-24 -0.48265,0 -1.45186,0.692 -2.1538,1.53779 -0.70194,0.84578 -3.01298,2.9133 -5.13564,4.59448 l -3.8594,3.0567 -2.00366,-2.34449 c -4.47193,-5.2326 -4.55352,-5.04395 5.71173,-13.20684 C 318.95108,345.26664 319.4734,345 324.64319,345 H 330 v 31 31 h -6 -6 z m 50,0 c 0,-13.2 -0.3949,-24 -0.87756,-24 -0.48265,0 -1.45186,0.692 -2.1538,1.53779 -0.70194,0.84578 -3.01298,2.9133 -5.13564,4.59448 l -3.8594,3.0567 -2.00366,-2.34449 c -4.47193,-5.2326 -4.55352,-5.04395 5.71173,-13.20684 C 368.95108,345.26664 369.4734,345 374.64319,345 H 380 v 31 31 h -6 -6 z m 49.21423,0 c 0.27215,-13.2 0.29455,-24 0.0498,-24 -0.24476,0 -2.8992,2.09666 -5.89874,4.65925 l -5.45372,4.65926 -2.91513,-3.40926 c -1.60333,-1.87509 -2.93343,-3.69763 -2.95578,-4.05009 -0.0224,-0.35246 4.21655,-4.06496 9.41978,-8.25 9.23099,-7.42462 9.59477,-7.60916 15,-7.60916 H 430 v 31 31 h -6.64029 -6.6403 z m 41.68827,21.86763 c -8.15311,-4.72854 -11.31057,-14.34837 -10.75354,-32.76283 0.31811,-10.51634 0.63242,-12.16757 3.35104,-17.6048 3.91359,-7.82717 8.28668,-10.46014 17.41214,-10.48355 8.50077,-0.0218 13.62441,2.87872 17.42716,9.86562 3.84028,7.05586 5.40091,19.30656 3.89411,30.56822 -1.53726,11.48932 -4.9279,17.75973 -11.43375,21.14472 -4.2456,2.20899 -15.5465,1.79586 -19.89716,-0.72738 z m 13.5527,-8.48881 c 3.21199,-1.23256 4.86255,-6.55251 5.3468,-17.23338 0.77013,-16.98608 -2.52243,-25.78079 -9.34896,-24.97191 -3.74631,0.4439 -6.2276,4.15953 -7.5638,11.32647 -1.18491,6.35548 -0.59067,21.52491 1.00792,25.72951 1.9047,5.00974 5.87528,6.94625 10.55804,5.14931 z M 94.249683,335.93376 C 51.256164,330.34403 15.120602,298.46876 3.8312289,256.17543 1.1931111,246.29226 0.23324825,224.07389 1.9747789,213.20336 7.1324533,181.00946 25.688058,154.3446 55.087915,136.87846 63.455418,131.90742 78.843363,126.34337 88.87474,124.66164 L 96.5,123.3833 97.820372,118.94165 C 105.27697,93.858118 109.72475,83.593027 119.43546,69.055882 139.30403,39.312209 166.08767,18.745384 198.97212,7.9806707 215.90988,2.4361028 227.58522,0.63052002 246.5,0.63052002 c 18.91478,0 30.59012,1.80558278 47.52788,7.35015068 C 344.51526,24.507694 381.84036,65.416049 394.9948,118.64054 l 1.02334,4.14053 18.24093,0.4665 c 22.37802,0.57229 32.52725,2.87096 49.24093,11.15242 25.44002,12.60526 44.53582,34.27339 53.6416,60.86745 6.76987,19.77188 4.76244,28.31853 -7.47584,31.82842 -7.80267,2.23777 -16.59814,-3.89049 -18.53312,-12.91299 -3.85752,-17.98698 -15.10916,-35.35638 -29.6032,-45.69911 -13.14268,-9.37842 -26.74226,-14.22771 -42.56664,-15.17825 -15.97237,-0.95943 -30.69625,3.00743 -46.39966,12.50085 -7.76594,4.69485 -11.91091,5.27185 -17.54321,2.44209 -1.91403,-0.96165 -4.54136,-3.32345 -5.8385,-5.24845 -1.96764,-2.92005 -2.29176,-4.45294 -1.95605,-9.25102 0.48704,-6.96092 2.90114,-9.91505 13.04615,-15.96459 7.79712,-4.64947 7.64681,-3.66823 3.02985,-19.77889 -12.36134,-43.134393 -49.96107,-77.006696 -95.0265,-85.606119 -11.5787,-2.209458 -31.97106,-2.209458 -43.54976,0 -38.74127,7.392641 -72.3153,33.459928 -88.65909,68.835979 -3.71629,8.04391 -8.71751,22.60976 -7.92957,23.09458 0.19995,0.12303 3.34599,0.9723 6.99121,1.88726 15.59282,3.91385 35.39066,14.06565 39.41834,20.21267 2.57525,3.93034 2.99814,10.62115 0.9448,14.94826 -2.6354,5.55369 -6.90755,8.12187 -13.51066,8.12187 -4.76538,0 -6.33725,-0.54359 -11.5,-3.97699 -18.65374,-12.40532 -44.15998,-15.70108 -65.758173,-8.49686 -13.043151,4.35062 -21.76444,9.81115 -31.831835,19.93039 -7.093095,7.12962 -9.429788,10.31802 -13.264164,18.09883 -6.880536,13.96215 -9.008726,23.6205 -8.355432,37.91939 0.357832,7.832 1.231589,13.76837 2.726678,18.52524 9.171657,29.18112 33.960397,50.11154 64.502776,54.46306 4.19724,0.598 40.63316,1.00675 91,1.02087 82.03678,0.023 84.07617,0.07 87.25914,2.01067 9.99226,6.09235 9.54902,20.45124 -0.79502,25.7554 l -4.3879,2.25 -85.53811,-0.1268 c -47.04596,-0.0697 -88.350753,-0.49249 -91.788427,-0.93944 z M 362.79136,312.07111 c -4.98165,-1.61115 -8.64433,-5.07142 -11.47962,-10.84524 C 348.63597,295.77689 348.5,294.82298 348.5,281.5 c 0,-10.82508 0.40195,-15.15104 1.77243,-19.07558 C 353.19494,254.05547 360.21204,249 368.90583,249 c 11.37572,0 18.50388,6.94565 21.00314,20.46538 3.21674,17.40099 -0.6368,34.67905 -8.96348,40.18939 -4.18107,2.7669 -13.31226,3.98227 -18.15413,2.41634 z m 10.44853,-11.04517 c 1.4714,-1.1574 2.97513,-3.82277 3.63486,-6.44282 1.44518,-5.73933 1.31995,-22.92896 -0.20383,-27.97686 -2.2644,-7.50143 -9.37107,-9.76522 -13.04645,-4.15587 -3.75539,5.73144 -4.31547,26.20053 -0.94872,34.67256 2.21573,5.57566 6.44926,7.13976 10.56414,3.90299 z m 141.4153,10.51541 c -5.16831,-1.84276 -8.03677,-4.72853 -10.82437,-10.88974 C 501.73375,296.01663 501.5,294.04586 501.5,281 c 0,-16.95499 1.32519,-21.80247 7.48056,-27.36347 4.36928,-3.94739 10.08377,-5.30385 17.59731,-4.17712 6.21571,0.9321 11.64662,5.9237 14.54483,13.36831 2.90343,7.45798 3.24566,26.64155 0.62844,35.22669 -3.63411,11.9208 -15.25939,17.70726 -27.09595,13.48694 z m 9.73181,-9.49839 c 4.86922,-1.85127 6.113,-6.13277 6.113,-21.04296 0,-11.107 -0.31873,-14.08378 -1.7981,-16.79335 -3.71236,-6.79946 -10.33074,-6.53132 -13.46638,0.54559 -1.25898,2.8414 -1.66057,6.77075 -1.66057,16.24776 0,15.87774 1.38804,19.63225 8.10995,21.93661 0.1017,0.0349 1.31764,-0.36728 2.7021,-0.89365 z M 318,287.93365 V 263.8673 l -6.06761,4.76698 -6.0676,4.76698 -2.6824,-3.42746 c -1.47531,-1.8851 -2.68239,-3.71464 -2.68239,-4.06565 0,-0.351 4.35025,-4.07392 9.66722,-8.27316 9.17206,-7.24393 9.92755,-7.63499 14.75,-7.63499 H 330 v 31 31 h -6 -6 z M 470.21423,288 c 0.27215,-13.2 0.2889,-24 0.0372,-24 -0.25167,0 -2.70988,2.025 -5.46267,4.5 -2.7528,2.475 -5.35301,4.5 -5.77824,4.5 -0.91,0 -6.37591,-6.97109 -5.86153,-7.47563 0.19305,-0.18935 4.62599,-3.75805 9.85099,-7.93044 9.11086,-7.27542 9.71505,-7.58632 14.75,-7.59004 L 483,250 v 31 31 h -6.64029 -6.6403 z"
         id="path9" />
      <path
         style="fill:#272727"
         d="m 301.88805,522.50036 c -6.52603,-3.54683 -7.80549,-21.20596 -2.00639,-27.69202 2.06308,-2.30747 3.48768,-2.94032 6.7177,-2.98423 5.31875,-0.0723 7.76422,1.31496 9.77029,5.54244 2.02781,4.2733 2.15925,15.43186 0.23598,20.03488 -2.56141,6.13032 -8.82627,8.30079 -14.71758,5.09893 z m 8.82209,-6.50922 c 2.57741,-5.09427 1.03171,-18.10875 -2.3027,-19.38828 -0.79904,-0.30663 -2.3426,0.3323 -3.43012,1.41982 -1.63724,1.63724 -1.97732,3.34097 -1.97732,9.90589 0,5.97808 0.39887,8.32744 1.62138,9.54995 2.15386,2.15386 4.54161,1.57057 6.08876,-1.48738 z M 332,510.82569 v -12.17432 l -2.54494,2.39085 c -1.96302,1.84416 -2.92121,2.15351 -4.19048,1.35287 -0.90505,-0.57089 -1.7572,-1.45583 -1.89367,-1.96653 C 322.95146,498.85886 332.80594,492 335.48064,492 H 338 v 15.5 15.5 h -3 -3 z m 166.28625,-37.88568 c -7.10506,-2.16309 -10.96337,-12.23059 -10.01121,-26.1223 0.93013,-13.57028 5.33991,-19.10342 15.22496,-19.10342 6.7036,0 10.03192,2.00985 13,7.85024 1.65592,3.2584 2,5.91396 2,15.43547 0,9.70151 -0.31278,12.03102 -2,14.89547 -3.89919,6.61979 -10.8185,9.29597 -18.21375,7.04454 z m 9.30876,-9.045 C 509.23154,462.08667 509.5,460.199 509.5,450.5 c 0,-9.699 -0.26846,-11.58667 -1.90499,-13.39501 -2.65982,-2.93907 -6.16843,-2.68567 -8.32196,0.60103 -1.4014,2.13881 -1.77305,4.82056 -1.77305,12.79398 0,7.97342 0.37165,10.65517 1.77305,12.79398 2.15353,3.2867 5.66214,3.5401 8.32196,0.60103 z M 539,455.43305 V 437.8661 l -4.33756,3.55431 -4.33757,3.5543 -2.34919,-2.5006 c -2.65201,-2.82293 -2.94566,-2.35533 5.90178,-9.39775 5.18856,-4.13001 7.09939,-5.07636 10.25,-5.07636 H 548 V 450.5 473 H 543.5 539 Z M 318,383 c 0,-13.2 -0.3949,-24 -0.87756,-24 -0.48265,0 -1.45186,0.692 -2.1538,1.53779 -0.70194,0.84578 -3.01298,2.9133 -5.13564,4.59448 l -3.8594,3.0567 -2.00366,-2.34449 c -4.47193,-5.2326 -4.55352,-5.04395 5.71173,-13.20684 C 318.95108,345.26664 319.4734,345 324.64319,345 H 330 v 31 31 h -6 -6 z m 50,0 c 0,-13.2 -0.3949,-24 -0.87756,-24 -0.48265,0 -1.45186,0.692 -2.1538,1.53779 -0.70194,0.84578 -3.01298,2.9133 -5.13564,4.59448 l -3.8594,3.0567 -2.00366,-2.34449 c -4.47193,-5.2326 -4.55352,-5.04395 5.71173,-13.20684 C 368.95108,345.26664 369.4734,345 374.64319,345 H 380 v 31 31 h -6 -6 z m 49.21423,0 c 0.27215,-13.2 0.29455,-24 0.0498,-24 -0.24476,0 -2.8992,2.09666 -5.89874,4.65925 l -5.45372,4.65926 -2.91513,-3.40926 c -1.60333,-1.87509 -2.93343,-3.69763 -2.95578,-4.05009 -0.0224,-0.35246 4.21655,-4.06496 9.41978,-8.25 9.23099,-7.42462 9.59477,-7.60916 15,-7.60916 H 430 v 31 31 h -6.64029 -6.6403 z m 41.68827,21.86763 c -8.15311,-4.72854 -11.31057,-14.34837 -10.75354,-32.76283 0.31811,-10.51634 0.63242,-12.16757 3.35104,-17.6048 3.91359,-7.82717 8.28668,-10.46014 17.41214,-10.48355 8.50077,-0.0218 13.62441,2.87872 17.42716,9.86562 3.84028,7.05586 5.40091,19.30656 3.89411,30.56822 -1.53726,11.48932 -4.9279,17.75973 -11.43375,21.14472 -4.2456,2.20899 -15.5465,1.79586 -19.89716,-0.72738 z m 13.5527,-8.48881 c 3.21199,-1.23256 4.86255,-6.55251 5.3468,-17.23338 0.77013,-16.98608 -2.52243,-25.78079 -9.34896,-24.97191 -3.74631,0.4439 -6.2276,4.15953 -7.5638,11.32647 -1.18491,6.35548 -0.59067,21.52491 1.00792,25.72951 1.9047,5.00974 5.87528,6.94625 10.55804,5.14931 z"
         id="path8" />
    </g>
  </g>
</svg>
